STARTFONT 2.1
COMMENT
COMMENT Converted from TrueType font "albas.ttf" by "ttf2bdf 2.6".
COMMENT
FONT -FreeType-Alba Super-Medium-R-Normal--33-240-100-100-P-213-ISO10646-1
SIZE 24 100 100
FONTBOUNDINGBOX 51 66 -6 -24
STARTPROPERTIES 20
FOUNDRY "FreeType"
FAMILY_NAME "Alba Super"
WEIGHT_NAME "Medium"
SLANT "R"
SETWIDTH_NAME "Normal"
ADD_STYLE_NAME ""
PIXEL_SIZE 33
POINT_SIZE 240
RESOLUTION_X 100
RESOLUTION_Y 100
SPACING "P"
AVERAGE_WIDTH 213
CHARSET_REGISTRY "ISO10646"
CHARSET_ENCODING "1"
FONT_ASCENT 33
FONT_DESCENT 17
COPYRIGHT "Alba ©2001, Font"a"licious Fonts."
_TTF_FONTFILE "albas.ttf"
_TTF_PSNAME "AlbaSuper"
_XFREE86_GLYPH_RANGES "32_126 161_165 167_172 174_177 180_184 186_187 191_214 216_252 254_255 305 321_322 338_339 352_353 376 381_382 402 710_711 713 728_733 916 937 956 960 8208 8211_8212 8216_8218 8220_8222 8224_8226 8230 8240 8249_8250 8260 8482 8486 8706 8710 8719 8721 8729_8730 8734 8747 8776 8800 8804_8805 8946 9674 61441_61442"
ENDPROPERTIES
CHARS 239
STARTCHAR 0020
ENCODING 32
SWIDTH 300 0
DWIDTH 10 0
BBX 1 1 0 0
BITMAP
00
ENDCHAR
STARTCHAR 0021
ENCODING 33
SWIDTH 240 0
DWIDTH 8 0
BBX 11 32 -1 -6
BITMAP
0E00
3F80
3180
3180
7180
71C0
71C0
71C0
71C0
71C0
71C0
71C0
71C0
71C0
71C0
71C0
71C0
71C0
7FC0
7FC0
71C0
60C0
60C0
E0C0
60E0
60E0
71E0
7FC0
7FC0
7FC0
3F80
1F00
ENDCHAR
STARTCHAR 0022
ENCODING 34
SWIDTH 480 0
DWIDTH 16 0
BBX 17 18 0 8
BITMAP
1E3C00
7F7F00
63C300
C18180
C18180
C18180
C18180
C18180
C18180
C18180
C18180
C18180
E3C380
FFFF80
FFFF80
7FFF00
7F7F00
1E3C00
ENDCHAR
STARTCHAR 0023
ENCODING 35
SWIDTH 570 0
DWIDTH 19 0
BBX 20 24 0 2
BITMAP
079E00
1FFF00
1CF380
3861C0
7861E0
E00070
C00030
C00030
C00030
E00070
F861F0
F861F0
E00070
C00030
C00030
E00070
F861F0
F861F0
FCF3F0
7FFFE0
3FFFE0
1FFF80
1FFF00
079E00
ENDCHAR
STARTCHAR 0024
ENCODING 36
SWIDTH 480 0
DWIDTH 16 0
BBX 17 32 0 -6
BITMAP
03C000
07E000
067000
0C3000
0C3E00
0E7F00
0FC380
0F0180
0E0180
0E0180
0C0780
0C1F80
0C1F80
0C1F80
0C1F00
0C1E00
3C1800
7C1800
F01800
C03800
C03800
C07800
E1F800
FE7000
FC3000
FC3000
7E7000
3FF000
0FF000
0FF000
07E000
03C000
ENDCHAR
STARTCHAR 0025
ENCODING 37
SWIDTH 750 0
DWIDTH 25 0
BBX 26 37 0 -9
BITMAP
0001F000
0003F800
0F831C00
3FC60C00
70E60C00
603E0C00
C03C1C00
C61C1C00
CF1C1C00
CF183C00
CF383800
E6303800
F0F07800
FFF07000
7FE07000
7FE0F000
3FE0FC00
0FC1FF00
00C1C380
01C19980
01833CC0
01833CC0
03833CC0
030718C0
030700C0
060781C0
060FC3C0
060FFFC0
0C0FFF80
0C1DFF80
0C1CFF00
0E3C7C00
0FF80000
0FF80000
0FF80000
07F00000
03E00000
ENDCHAR
STARTCHAR 0026
ENCODING 38
SWIDTH 870 0
DWIDTH 29 0
BBX 30 20 0 1
BITMAP
00000078
000000FC
000001CC
0000018C
0F87CF8C
1FFFFF8C
3878788C
6733308C
6713338C
C713A78C
C713A78C
C713A38C
E113B00C
E113B01C
F893BC3C
7FFFFFFC
7FFFFFFC
3FFFFFF8
1FFEF7F0
0FFCE3C0
ENDCHAR
STARTCHAR 0027
ENCODING 39
SWIDTH 270 0
DWIDTH 9 0
BBX 10 18 0 8
BITMAP
1E00
7F80
6180
C0C0
C0C0
C0C0
C0C0
C0C0
C0C0
C0C0
C0C0
C0C0
E1C0
FFC0
FFC0
7F80
7F80
1E00
ENDCHAR
STARTCHAR 0028
ENCODING 40
SWIDTH 540 0
DWIDTH 18 0
BBX 19 36 0 -8
BITMAP
003F80
00FFC0
03E0E0
070060
0E0060
1C0060
3800E0
300FE0
603FE0
607FE0
E0FFC0
C1FF80
C1F000
C1E000
C1C000
C18000
C18000
C18000
C18000
C18000
C18000
C1C000
E0E000
E07000
E03F80
F00FC0
7800E0
7C0060
3E0060
3F0060
1FE0E0
0FFFE0
07FFE0
03FFE0
00FFC0
003F80
ENDCHAR
STARTCHAR 0029
ENCODING 41
SWIDTH 540 0
DWIDTH 18 0
BBX 19 36 0 -8
BITMAP
3F0000
7FE000
E0F800
C01C00
C00E00
C00700
E00380
FE0180
FF80C0
FFC0C0
7FE0E0
3FE060
01F060
00F060
007060
003060
003060
003060
003060
003060
003060
006060
00E0E0
01C0E0
3F80E0
7E01E0
E003C0
C007C0
C00F80
C01F80
E0FF00
FFFE00
FFFC00
FFF800
7FE000
3F8000
ENDCHAR
STARTCHAR 002A
ENCODING 42
SWIDTH 450 0
DWIDTH 15 0
BBX 17 20 0 -3
BITMAP
01C000
03E000
077000
0E3000
7C3E00
F81F00
C00380
C00180
600300
E00780
F00780
F00780
700700
700600
31C600
3FFE00
3FFE00
3FFE00
3FFC00
1E3800
ENDCHAR
STARTCHAR 002B
ENCODING 43
SWIDTH 480 0
DWIDTH 16 0
BBX 17 20 0 -3
BITMAP
03E000
07F000
0E3800
0C1800
3C1E00
7C1F00
E00380
C00180
C00180
E00380
FC1F80
FC1F80
FC1F80
FC1F80
7E3F00
3FFE00
0FF800
0FF800
07F000
03E000
ENDCHAR
STARTCHAR 002C
ENCODING 44
SWIDTH 270 0
DWIDTH 9 0
BBX 10 18 0 -10
BITMAP
1E00
7F80
6180
C0C0
C0C0
C0C0
C0C0
C0C0
C0C0
C0C0
C0C0
C0C0
E1C0
FFC0
FFC0
7F80
7F80
1E00
ENDCHAR
STARTCHAR 002D
ENCODING 45
SWIDTH 270 0
DWIDTH 9 0
BBX 10 13 0 2
BITMAP
1E00
7F80
6180
C0C0
C0C0
C0C0
40C0
E1C0
FFC0
FFC0
7F80
7F80
1E00
ENDCHAR
STARTCHAR 002E
ENCODING 46
SWIDTH 270 0
DWIDTH 9 0
BBX 10 14 0 -6
BITMAP
1E00
7F00
6380
E1C0
C0C0
C0C0
C0C0
41C0
E1C0
FFC0
FFC0
7F80
7F80
1E00
ENDCHAR
STARTCHAR 002F
ENCODING 47
SWIDTH 480 0
DWIDTH 16 0
BBX 18 37 -1 -9
BITMAP
001F00
003F80
0031C0
0060C0
0060C0
0060C0
00C0C0
00C1C0
01C1C0
0183C0
018380
038380
030780
030700
070700
060F00
060E00
0C0E00
0C1E00
0C1C00
181C00
183800
383800
307800
307000
707000
60F000
60E000
E0E000
C1E000
C1C000
E3C000
FFC000
FF8000
7F8000
7F0000
1E0000
ENDCHAR
STARTCHAR 0030
ENCODING 48
SWIDTH 810 0
DWIDTH 27 0
BBX 28 32 0 -6
BITMAP
003FC000
00FFF000
03C07C00
07000E00
0E000700
1C000380
380001C0
701F80C0
603FE0E0
607FF060
C0FFF060
C1FFF830
C1F0F830
C1C03830
C1C03830
C1801830
C1801830
C1C03830
C0C03070
E070F070
E03FE0F0
F01F80E0
780001E0
780003E0
7E0007C0
3F000FC0
1FC07F80
0FFFFF00
07FFFE00
03FFFC00
01FFF000
003FC000
ENDCHAR
STARTCHAR 0031
ENCODING 49
SWIDTH 240 0
DWIDTH 8 0
BBX 9 32 0 -6
BITMAP
3E00
7F00
E380
C180
C180
C180
C180
C180
C180
C180
C180
C180
C180
C180
C180
C180
C180
C180
C180
C180
C180
C180
C180
C180
C180
C180
E380
FF80
FF80
FF80
7F00
3E00
ENDCHAR
STARTCHAR 0032
ENCODING 50
SWIDTH 600 0
DWIDTH 20 0
BBX 22 32 0 -6
BITMAP
01FC00
07FF00
0F03C0
3C00E0
300070
600030
E00018
C07818
C0FC18
C1FC0C
C1FE0C
C1FE0C
C39C1C
FF9C1C
FFB81C
FFF03C
FFE078
7FC0F8
1F81F8
1F03F0
3C07F0
780FF8
E00018
C0000C
C0000C
C00018
C00018
FFFFFC
FFFFFC
FFFFF8
7FFFF8
3FFFE0
ENDCHAR
STARTCHAR 0033
ENCODING 51
SWIDTH 510 0
DWIDTH 17 0
BBX 18 32 0 -6
BITMAP
03F000
0FFC00
1C0E00
380700
700380
600180
E001C0
C0E0C0
C1F0C0
C1F0C0
C3F0C0
E3E0C0
FF01C0
FE01C0
FE03C0
7E01C0
3F01C0
07E0C0
07F0C0
07F0C0
3FF0C0
7FE0C0
E001C0
C001C0
C003C0
C007C0
E00F80
FFFF80
FFFF00
FFFE00
7FFC00
3FF000
ENDCHAR
STARTCHAR 0034
ENCODING 52
SWIDTH 540 0
DWIDTH 18 0
BBX 19 32 0 -6
BITMAP
3E0F80
7F1FC0
E3B8E0
C1B060
C1B060
C1B060
C1B060
C1B060
C1B060
C1B060
C1B060
C1B060
C1B060
C1F060
C0F060
E00060
E00060
F00060
F80060
7E0060
7FF060
3FF060
1FF060
0FF060
03F060
003060
0038E0
003FE0
003FE0
003FE0
001FC0
000F80
ENDCHAR
STARTCHAR 0035
ENCODING 53
SWIDTH 510 0
DWIDTH 17 0
BBX 19 32 0 -6
BITMAP
3FFF00
7FFF80
E001C0
C000C0
C000C0
C000C0
C001C0
C1FFC0
C1FFC0
C01FC0
C007C0
C00380
C001C0
E000C0
FFC0E0
FFE060
FFF060
7FF060
3FF060
007060
3FF060
7FC0E0
E000E0
C001E0
C003E0
C007C0
E01FC0
FFFF80
FFFF00
FFFE00
7FFC00
3FF000
ENDCHAR
STARTCHAR 0036
ENCODING 54
SWIDTH 600 0
DWIDTH 20 0
BBX 21 32 0 -6
BITMAP
01FC00
07FF00
0F03C0
1C00E0
380070
700030
600030
E07830
C0FC70
C107F0
C001F0
C00060
C00070
C00030
C07838
C0FC18
C1FE18
C1FE18
C1FE18
C1FE18
C0FC18
E07838
E00038
F00078
F000F8
7C01F0
7F07F0
3FFFE0
1FFFC0
0FFF80
07FF00
01FC00
ENDCHAR
STARTCHAR 0037
ENCODING 55
SWIDTH 540 0
DWIDTH 18 0
BBX 19 32 0 -6
BITMAP
3FFF80
7FFFC0
E000E0
C00060
C00060
C00060
E00060
FFE0E0
FFE0E0
FFE0E0
7FC0E0
3FC0C0
00C1C0
0181C0
0181C0
018380
038380
030380
030700
070700
060F00
060E00
060E00
0C1E00
0C1C00
0C1C00
0E3C00
0FF800
0FF800
0FF800
07F000
03E000
ENDCHAR
STARTCHAR 0038
ENCODING 56
SWIDTH 540 0
DWIDTH 18 0
BBX 19 32 0 -6
BITMAP
01F000
07FC00
0E0E00
180300
300380
300180
6000C0
60E0C0
60F0C0
61F0C0
60F0C0
60E0C0
7001C0
7001C0
7001C0
6000E0
C00060
C0E060
C1F060
C1F860
C1F060
C0E060
E000E0
E000E0
F001E0
F803E0
7E0FC0
7FFFC0
3FFF80
1FFF00
0FFE00
03F800
ENDCHAR
STARTCHAR 0039
ENCODING 57
SWIDTH 600 0
DWIDTH 20 0
BBX 22 32 0 -6
BITMAP
00FC00
07FF80
0F03C0
1C00E0
380070
700038
600018
E07818
C0FC0C
C1FE0C
C1FE0C
C1FE0C
C1FE0C
C0FC0C
E0780C
E0000C
F0000C
F8000C
7C000C
7F060C
38FC0C
30781C
30001C
30003C
38007C
3C00F8
3F03F8
3FFFF0
1FFFE0
0FFFC0
03FF80
00FE00
ENDCHAR
STARTCHAR 003A
ENCODING 58
SWIDTH 270 0
DWIDTH 9 0
BBX 10 21 0 -6
BITMAP
1E00
7F80
6180
C0C0
C0C0
C0C0
61C0
FFC0
FFC0
E3C0
E180
C0C0
C0C0
C0C0
41C0
E1C0
FFC0
FFC0
7F80
7F80
1E00
ENDCHAR
STARTCHAR 003B
ENCODING 59
SWIDTH 270 0
DWIDTH 9 0
BBX 10 25 0 -10
BITMAP
1E00
7F80
6180
C0C0
C0C0
C0C0
61C0
FFC0
FFC0
E1C0
C080
C0C0
C0C0
C0C0
C0C0
C0C0
C0C0
C0C0
C0C0
E1C0
FFC0
FFC0
7F80
7F80
1E00
ENDCHAR
STARTCHAR 003C
ENCODING 60
SWIDTH 330 0
DWIDTH 11 0
BBX 12 19 0 -3
BITMAP
03C0
0FE0
1C60
3830
7030
6030
E070
C0F0
C0F0
E070
E030
F030
F830
7C70
7FF0
3FF0
1FF0
0FE0
03C0
ENDCHAR
STARTCHAR 003D
ENCODING 61
SWIDTH 480 0
DWIDTH 16 0
BBX 17 19 0 -3
BITMAP
3FFE00
7FFF00
E00380
C00180
C00180
C00180
E00380
FFFF80
FFFF80
E00380
C00180
C00180
C00180
E00380
FFFF80
FFFF80
FFFF80
7FFF00
3FFE00
ENDCHAR
STARTCHAR 003E
ENCODING 62
SWIDTH 330 0
DWIDTH 11 0
BBX 12 19 0 -3
BITMAP
3C00
7F00
E380
C1C0
C0E0
C060
E070
F030
F030
E070
C070
C0F0
C1F0
E3E0
FFE0
FFC0
FF80
7F00
3C00
ENDCHAR
STARTCHAR 003F
ENCODING 63
SWIDTH 600 0
DWIDTH 20 0
BBX 21 32 0 -6
BITMAP
01FC00
07FF00
0F0780
1C01C0
300060
700070
600030
E07838
C0FC18
C1FE18
C1FE18
C1FE18
E3DE18
FFFC38
FFF838
FE0078
FC0078
7C01F8
1C07F0
0FFFF0
0FFFE0
0C3FE0
181FC0
181F00
181E00
081800
1C3800
1FF800
1FF800
0FF000
0FF000
03C000
ENDCHAR
STARTCHAR 0040
ENCODING 64
SWIDTH 810 0
DWIDTH 27 0
BBX 28 32 0 -6
BITMAP
003FC000
00FFF000
03C07C00
07000E00
0E000700
1C000380
380001C0
300F80C0
603FE060
60707060
E0E03870
C0C01830
C18F0C30
C19F8C30
C19F8C30
C19F8C30
C18F8C30
C0C18830
E0C18070
E0718070
E03F8070
F01F80F0
780001E0
7C0003E0
3E0007C0
3F000FC0
1FC03F80
0FFFFF00
07FFFE00
03FFFC00
00FFF000
003FC000
ENDCHAR
STARTCHAR 0041
ENCODING 65
SWIDTH 600 0
DWIDTH 20 0
BBX 26 39 0 -13
BITMAP
01FC0000
07FF0000
0F078000
1C01C000
30006000
70007000
60003000
E0783800
C0FC1800
C1FE1800
C1FE1800
C1FE1800
C1DE1800
C1FC1800
C1F81800
C1C01800
C1801800
C1801800
C1801800
C1C61800
C1FE1800
C1FE1800
C1FE1800
C1FE1800
C1FE1800
C1861800
E3861800
FF861F00
FF860F80
FF8601C0
7F0700C0
3E0780C0
0007C0C0
0003E1C0
0003FFC0
0001FFC0
0000FFC0
00007F80
00001F00
ENDCHAR
STARTCHAR 0042
ENCODING 66
SWIDTH 510 0
DWIDTH 17 0
BBX 18 32 0 -6
BITMAP
03F000
0FFC00
1C0E00
380700
700380
600180
E001C0
C0E0C0
C1F0C0
C1F0C0
C1F0C0
C1E0C0
C101C0
C201C0
C203C0
C201C0
C101C0
C1E0C0
C1F0C0
C1F0C0
C1F0C0
C1E0C0
C181C0
C201C0
C203C0
C207C0
E30F80
FFFF80
FFFF00
FFFE00
7FFC00
3DF000
ENDCHAR
STARTCHAR 0043
ENCODING 67
SWIDTH 540 0
DWIDTH 18 0
BBX 19 32 0 -6
BITMAP
001F80
00FFC0
03E0E0
070060
0E0060
1C0060
3800E0
301FE0
603FE0
607FE0
E0FFC0
C0FF80
C1F800
C1E000
C1C000
C18000
C18000
C0C000
E0E000
E07800
E03F80
F01FC0
7800E0
7C0060
3E0060
3F0060
1FE0E0
0FFFE0
07FFE0
03FFE0
00FFC0
003F80
ENDCHAR
STARTCHAR 0044
ENCODING 68
SWIDTH 660 0
DWIDTH 22 0
BBX 23 32 0 -6
BITMAP
3FF800
7FFE00
E00780
C001C0
C000E0
C00070
C00038
C1F018
C1FC0C
C1FE0C
C1FF0E
C1FF06
C18F86
C18786
C18386
C18186
C18186
C18306
C1870E
C18E0E
C1FC0E
C1F81E
C1801C
C1003C
C10078
C101F8
E387F0
FFFFE0
FFFFC0
FFFF80
7FFF00
3DF800
ENDCHAR
STARTCHAR 0045
ENCODING 69
SWIDTH 540 0
DWIDTH 18 0
BBX 19 32 0 -6
BITMAP
001F80
00FFC0
03E0E0
070060
0E0060
1C0060
3800E0
300FE0
603FE0
607FE0
E0FFC0
C1FFC0
C000E0
C00060
C00060
C00060
C000E0
C1FFE0
E0FFE0
E0FFC0
E03FC0
F00FC0
7800E0
7C0060
3E0060
3F0060
1FE0E0
0FFFE0
07FFE0
03FFE0
00FFC0
003F80
ENDCHAR
STARTCHAR 0046
ENCODING 70
SWIDTH 480 0
DWIDTH 16 0
BBX 17 32 0 -6
BITMAP
03FE00
0FFF00
1E0380
380180
700180
600180
E00380
C0FF80
C1FF80
C1FF80
C1FF80
C1FF00
C00380
C00180
C00180
C00180
C00180
C00380
C1FF80
C1FF80
C1FF80
C1FF00
C1FE00
C18000
C18000
C18000
E38000
FF8000
FF8000
FF8000
7F0000
3E0000
ENDCHAR
STARTCHAR 0047
ENCODING 71
SWIDTH 810 0
DWIDTH 27 0
BBX 28 32 0 -6
BITMAP
003FC000
00FFF000
03E03C00
07000F00
0E000380
1C000180
380000C0
300F80C0
603FE0C0
607FF180
E0FFFFC0
C0FFFFE0
C1EE0070
C1CC0030
C1CC0030
C18C0030
C18E0030
C0CFF830
E0CFF070
E06FF070
E03FE070
F00F80F0
780001E0
7C0003E0
3E0007C0
3F000FC0
1FC03F80
0FFFFF00
07FFFE00
03FFFC00
00FFF000
003FC000
ENDCHAR
STARTCHAR 0048
ENCODING 72
SWIDTH 630 0
DWIDTH 21 0
BBX 28 39 0 -13
BITMAP
3E00F000
7F01F800
E3839C00
C1830C00
C1830C00
C1830C00
C1830C00
C1830C00
C1830C00
C1FF0C00
C1FF0C00
C0000C00
C0000C00
C0000C00
C0000C00
C0000C00
C1FF0C00
C1FF0C00
C1FF0C00
C1FF0C00
C1FF0C00
C1830C00
C1830C00
C1830C00
C1830C00
C1830C00
E3830C00
FF830F80
FF8307E0
FF830070
7F038030
3E03C030
0003E030
0001F870
0001FFF0
0000FFF0
00007FF0
00003FE0
00000FC0
ENDCHAR
STARTCHAR 0049
ENCODING 73
SWIDTH 240 0
DWIDTH 8 0
BBX 9 32 0 -6
BITMAP
3E00
7F00
E380
C180
C180
C180
C180
C180
C180
C180
C180
C180
C180
C180
C180
C180
C180
C180
C180
C180
C180
C180
C180
C180
C180
C180
E380
FF80
FF80
FF80
7F00
3E00
ENDCHAR
STARTCHAR 004A
ENCODING 74
SWIDTH 540 0
DWIDTH 18 0
BBX 19 32 0 -6
BITMAP
000F80
001FC0
0038E0
003060
003060
003060
003060
003060
003060
003060
003060
003060
003060
003060
003060
3E3060
7F3060
E3B060
C1B060
C1B060
C1F060
C0E060
E000E0
E000E0
F001E0
F803E0
7E0FC0
7FFFC0
3FFF80
1FFF00
0FFE00
03F800
ENDCHAR
STARTCHAR 004B
ENCODING 75
SWIDTH 570 0
DWIDTH 19 0
BBX 25 39 0 -13
BITMAP
3E000000
7F000000
E3800000
C1800000
C1800000
C19E0000
C1BF0000
C1F38000
C1E18000
C1E18000
C1E18000
C1C18000
C0038000
C0018000
C000C000
C0006000
C1F07000
C1F83000
C1F83000
C1F83000
C1F83000
C1983000
C1983000
C1983000
C1983000
C1983000
E3983000
FF983E00
FF981F00
FF1C0380
7F1C0180
3E1E0180
001F0180
000FC380
000FFF80
0007FF80
0003FF80
0001FF00
00007E00
ENDCHAR
STARTCHAR 004C
ENCODING 76
SWIDTH 420 0
DWIDTH 14 0
BBX 15 32 0 -6
BITMAP
3E00
7F00
E380
C180
C180
C180
C180
C180
C180
C180
C180
C180
C180
C180
C180
C180
C180
C180
C180
C180
C1F8
C0FC
E00E
E006
F006
F806
7C0E
7FFE
3FFE
1FFE
0FFC
03F8
ENDCHAR
STARTCHAR 004D
ENCODING 77
SWIDTH 810 0
DWIDTH 27 0
BBX 33 39 0 -13
BITMAP
03F0FC0000
0FF9FF0000
1E0F078000
380601C000
700000E000
6000006000
E000007000
C0E0703000
C1F0783000
C1F0783000
C1F0783000
C1F0783000
C1B0783000
C1B0783000
C1B0783000
C1B0783000
C1B0783000
C1B0783000
C1B0783000
C1B0783000
C1B0783000
C1B0783000
C1B0783000
C1B0783000
C1B0783000
C1B0783000
E3B8F83000
FFBFF83E00
FFBFF81F00
FFBFFC0380
7F1FDC0180
3E0F9E0180
00001F0180
00000FC380
00000FFF80
000007FF80
000003FF80
000001FF00
0000007E00
ENDCHAR
STARTCHAR 004E
ENCODING 78
SWIDTH 540 0
DWIDTH 18 0
BBX 24 39 0 -13
BITMAP
03F800
0FFE00
1E0F00
380380
7001C0
6000C0
E00060
C0E060
C1F060
C1F060
C1F060
C1F060
C1B060
C1B060
C1B060
C1B060
C1B060
C1B060
C1B060
C1B060
C1B060
C1B060
C1B060
C1B060
C1B060
C1B060
E3B060
FFB07C
FFB03E
FFB007
7F3803
3E3C03
003E03
001F87
001FFF
000FFF
0007FF
0003FE
0000FC
ENDCHAR
STARTCHAR 004F
ENCODING 79
SWIDTH 810 0
DWIDTH 27 0
BBX 28 32 0 -6
BITMAP
003FC000
00FFF000
03C07C00
07000E00
0E000700
1C000380
380001C0
701F80C0
603FE0E0
607FF060
C0FFF060
C1FFF830
C1F0F830
C1C03830
C1C03830
C1801830
C1801830
C1C03830
C0C03070
E070F070
E03FE0F0
F01F80E0
780001E0
780003E0
7E0007C0
3F000FC0
1FC07F80
0FFFFF00
07FFFE00
03FFFC00
01FFF000
003FC000
ENDCHAR
STARTCHAR 0050
ENCODING 80
SWIDTH 600 0
DWIDTH 20 0
BBX 22 32 0 -6
BITMAP
00FC00
07FF80
0F03C0
1C00E0
380070
700038
600018
E0781C
C0FC0C
C1FE0C
C1FE0C
C1FE0C
C1DE08
C1FC0C
C1F81C
C1C01C
C1803C
C1007C
C180F8
C183F8
C1FFF0
C1FFE0
C1FFC0
C1FF80
C1FC00
C18000
E38000
FF8000
FF8000
FF0000
7F0000
3C0000
ENDCHAR
STARTCHAR 0051
ENCODING 81
SWIDTH 810 0
DWIDTH 27 0
BBX 28 40 0 -14
BITMAP
003FC000
00FFF000
03E07C00
07000E00
0E000700
1C000380
380001C0
300F80C0
603FE060
607FF060
E0FFF070
C0FFF830
C18FF830
C103F830
C101BC30
C100D830
C180D830
C1E07830
C0F07070
E0F07070
E0706070
F03000F0
703001E0
783001E0
3C7003C0
3FF00FC0
1FF03F80
0FF07F80
07F07F00
03F07E00
00307800
00306000
00306000
00306000
0038E000
003FE000
003FE000
003FC000
001FC000
000F8000
ENDCHAR
STARTCHAR 0052
ENCODING 82
SWIDTH 600 0
DWIDTH 20 0
BBX 21 32 0 -6
BITMAP
01FC00
07FF00
0F0780
1C01C0
3000E0
700070
600030
E07838
C0FC18
C1FE18
C1FE18
C1FE18
C1DE18
C1FC18
C1F838
C1C038
C18078
C180F8
C181F0
C187F0
C187E0
C183E0
C18070
C1C030
C1E030
C1F030
E3F870
FFFFF0
FFFFF0
FF7FF0
7F3FE0
3C0FC0
ENDCHAR
STARTCHAR 0053
ENCODING 83
SWIDTH 480 0
DWIDTH 16 0
BBX 17 32 0 -6
BITMAP
003E00
00FF00
01C380
030180
060180
060180
0C0380
0C1F80
0C1F80
0C1F80
0C1F00
0C1E00
0C1800
0C1800
0C1800
0C1800
0C1800
0C1800
0C1800
0C1800
3C1800
7C1800
E01800
C03800
C07800
C07800
E1F000
FFF000
FFE000
FFC000
7F8000
3E0000
ENDCHAR
STARTCHAR 0054
ENCODING 84
SWIDTH 540 0
DWIDTH 18 0
BBX 19 32 0 -6
BITMAP
3FFF80
7FFFC0
E000E0
C00060
C00060
C00060
E000E0
FE0FE0
FE0FE0
FE0FE0
7E0FC0
3E0F80
060C00
060C00
060C00
060C00
060C00
060C00
060C00
060C00
060C00
060C00
060C00
060C00
060C00
060C00
071C00
07FC00
07FC00
07FC00
03F800
01F000
ENDCHAR
STARTCHAR 0055
ENCODING 85
SWIDTH 540 0
DWIDTH 18 0
BBX 19 32 0 -6
BITMAP
3E0F80
7F1FC0
E3B8E0
C1B060
C1B060
C1B060
C1B060
C1B060
C1B060
C1B060
C1B060
C1B060
C1B060
C1B060
C1B060
C1B060
C1B060
C1B060
C1B060
C1B060
C1F060
C0E060
E000E0
E000E0
F001E0
F803E0
7E0FC0
7FFFC0
3FFF80
1FFF00
0FFE00
03F800
ENDCHAR
STARTCHAR 0056
ENCODING 86
SWIDTH 600 0
DWIDTH 20 0
BBX 22 32 -1 -6
BITMAP
1C00F0
7F01F8
63031C
C1870C
C1860C
C1C60C
E0CE0C
E0CC0C
E0EC1C
F07C1C
70781C
707838
783838
383038
383070
1C1070
1C00F0
1C00E0
0E00E0
0E01E0
0E01C0
0701C0
0703C0
070380
038380
038780
03C700
01FF00
01FF00
01FE00
00FE00
007800
ENDCHAR
STARTCHAR 0057
ENCODING 87
SWIDTH 810 0
DWIDTH 27 0
BBX 28 32 0 -6
BITMAP
3E1F07C0
7F3F8FE0
E3F1DC70
C1E0D830
C1E0D830
C1E0D830
C1E0D830
C1E0D830
C1E0D830
C1E0D830
C1E0D830
C1E0D830
C1E0D830
C1E0D830
C1E0D830
C1E0D830
C1E0D830
C1E0D830
C1E0D830
C1E0D830
C1E0F830
C0E07030
E0000070
E0000070
F00000F0
F80001F0
7E0607E0
7FFFFFE0
3FFFFFC0
1FFFFF80
0FFFFF00
03F9FC00
ENDCHAR
STARTCHAR 0058
ENCODING 88
SWIDTH 540 0
DWIDTH 18 0
BBX 19 32 0 -6
BITMAP
3E0F80
7F1FC0
E3B8E0
C1B060
C1B060
C1B060
C1B060
C1B060
C1B060
C1B060
C1F060
C0E060
E000E0
F001E0
F803E0
7001C0
6000C0
E0E0E0
C1F060
C1F060
C1F060
C1F060
C1B060
C1B060
C1B060
C1B060
E3B8E0
FFBFE0
FFBFE0
FFBFE0
7F1FC0
3E0F80
ENDCHAR
STARTCHAR 0059
ENCODING 89
SWIDTH 540 0
DWIDTH 18 0
BBX 19 32 0 -6
BITMAP
3E0F80
7F1FC0
E3B8E0
C1B060
C1B060
C1B060
C1B060
C1B060
C1B060
C1B060
C1F060
C0E060
E00060
E00060
F00060
F80060
7E1060
C1F060
C1F060
C1F060
C1F060
C0E060
E000E0
E000E0
F001E0
F803E0
7E0FC0
7FFFC0
3FFF80
1FFF00
0FFE00
03F800
ENDCHAR
STARTCHAR 005A
ENCODING 90
SWIDTH 570 0
DWIDTH 19 0
BBX 20 32 0 -6
BITMAP
0FFF80
1FFFE0
300060
300070
300030
300030
300030
3FE070
3FC070
3FC0E0
3F80E0
1F81E0
0301C0
070380
060780
0C0700
1C0F00
180E00
381E00
301C00
603F80
607FE0
C00060
C00060
C00030
C00070
C00070
FFFFF0
FFFFF0
FFFFE0
FFFFE0
3FFF80
ENDCHAR
STARTCHAR 005B
ENCODING 91
SWIDTH 420 0
DWIDTH 14 0
BBX 15 41 0 -12
BITMAP
03F8
0FFC
1C0E
3806
7006
600E
C0FE
C1FE
C1FE
C1FC
C1F8
C180
C180
C180
C180
C180
C180
C180
C180
C180
C180
C180
C180
C180
C180
C180
C180
C180
C180
C1F8
C0FC
C00E
E006
F006
F806
7C0E
7FFE
3FFE
1FFE
0FFC
03F8
ENDCHAR
STARTCHAR 005C
ENCODING 92
SWIDTH 480 0
DWIDTH 16 0
BBX 18 37 -1 -9
BITMAP
1E0000
7F0000
638000
C18000
C18000
C0C000
E0C000
E0C000
E06000
706000
706000
783000
383000
383800
3C1800
1C1800
1C0C00
1E0C00
0E0C00
0E0600
070600
070600
070300
038300
038300
03C180
01C180
01C1C0
01E0C0
00E0C0
00E0C0
0071C0
007FC0
007FC0
003FC0
003F80
001F00
ENDCHAR
STARTCHAR 005D
ENCODING 93
SWIDTH 420 0
DWIDTH 14 0
BBX 15 41 0 -12
BITMAP
3F80
7FE0
E0F0
C038
C01C
E00C
FE06
FF06
FF06
7F06
3F06
0306
0306
0306
0306
0306
0306
0306
0306
0306
0306
0306
0306
0306
0306
0306
0306
0306
0306
3F06
7E06
E006
C00E
C01E
C03E
E07C
FFFC
FFF8
FFF0
7FE0
3F80
ENDCHAR
STARTCHAR 005E
ENCODING 94
SWIDTH 420 0
DWIDTH 14 0
BBX 15 15 0 10
BITMAP
0380
0FE0
1C70
3838
701C
600C
C006
C106
C386
E78E
FFFE
FFFE
FFFE
7FFC
3C78
ENDCHAR
STARTCHAR 005F
ENCODING 95
SWIDTH 600 0
DWIDTH 20 0
BBX 21 13 0 -6
BITMAP
3FFFE0
7FFFF0
E00038
C00018
C00018
C00018
C00018
E00038
FFFFF8
FFFFF8
FFFFF8
7FFFF0
3FFFE0
ENDCHAR
STARTCHAR 0060
ENCODING 96
SWIDTH 300 0
DWIDTH 10 0
BBX 11 17 0 9
BITMAP
1E00
7F00
6380
C180
C0C0
C0C0
C0E0
E060
E060
E060
F060
78E0
7FE0
3FE0
3FC0
1FC0
0F00
ENDCHAR
STARTCHAR 0061
ENCODING 97
SWIDTH 600 0
DWIDTH 20 0
BBX 22 25 0 -6
BITMAP
00FC00
07FF80
0F03C0
1C00E0
380070
700038
600018
E07818
C0FC0C
C1FE0C
C1FE0C
C1FE0C
C1EE0C
C0FE0C
E0FE0C
E00E0C
F0060C
F8060C
7C060C
7F0F1C
3FFFFC
1FFFFC
0FFFFC
07FFF8
01F9F0
ENDCHAR
STARTCHAR 0062
ENCODING 98
SWIDTH 600 0
DWIDTH 20 0
BBX 21 32 0 -6
BITMAP
3E0000
7F0000
E38000
C18000
C18000
C18000
C18000
C1FC00
C1FF00
C1C380
C180C0
C18060
C18070
C1C030
C1F838
C1FC18
C1FE18
C1FE18
C1FE18
C1DE18
C0FC18
E07838
E00038
F00078
F000F8
7C01F0
7F07F0
3FFFE0
1FFFC0
0FFF80
07FF00
01FC00
ENDCHAR
STARTCHAR 0063
ENCODING 99
SWIDTH 420 0
DWIDTH 14 0
BBX 15 25 0 -6
BITMAP
01F8
07FC
0F0E
1C06
3806
7006
600E
E07E
C0FE
C1FE
C1FC
C1F8
C1C0
C0F8
E07C
E00E
F006
F806
7C06
7F0E
3FFE
1FFE
0FFE
07FC
01F8
ENDCHAR
STARTCHAR 0064
ENCODING 100
SWIDTH 600 0
DWIDTH 20 0
BBX 21 32 0 -6
BITMAP
0001E0
0003F0
000738
000618
000618
000618
000618
00FE18
07FE18
0F0E18
1C0618
380618
700618
600E18
E07E18
C0FE18
C1FE18
C1FE18
C1FE18
C1CE18
C0FC18
E07838
E00038
F00078
F800F8
7C01F0
7F07F0
3FFFE0
1FFFC0
0FFF80
07FF00
01FC00
ENDCHAR
STARTCHAR 0065
ENCODING 101
SWIDTH 570 0
DWIDTH 19 0
BBX 20 25 0 -6
BITMAP
01FC00
07FF00
0F03C0
1C00E0
380070
700030
600030
E06030
C0C070
C180F0
C181F0
C183F0
C1C7E0
C0FFC0
E07F80
E001C0
F000C0
F800C0
7C00C0
7F01C0
3FFFC0
1FFFC0
0FFFC0
07FF80
01FF00
ENDCHAR
STARTCHAR 0066
ENCODING 102
SWIDTH 510 0
DWIDTH 17 0
BBX 19 32 0 -6
BITMAP
03F000
0FFE00
1E0F00
380380
700180
6001C0
E000C0
C0E0E0
C1F0E0
C1F060
C1F0E0
C1F8E0
C1FFE0
C1FFE0
C000C0
C00060
C00060
C00060
C000E0
C1FFE0
C1FFE0
C1FFE0
C1FFC0
C1FF80
C18000
C18000
E38000
FF8000
FF8000
FF0000
7F0000
3E0000
ENDCHAR
STARTCHAR 0067
ENCODING 103
SWIDTH 600 0
DWIDTH 20 0
BBX 21 43 0 -24
BITMAP
01FC00
07FF00
0F0780
1C01C0
300060
700070
600030
C07838
C0FC18
C1FE18
C1FE18
C1FE18
C1CE18
C0FE18
E03E18
F00618
F00618
FC0618
7F0E18
7FFE18
3F0018
1C0018
380038
700078
6000F8
E07FF8
C0FF38
C1FE18
C1FE18
C1FE18
C1DC18
C0FC18
E07838
E00038
F00078
F800F8
7C01F0
7F07F0
3FFFE0
1FFFC0
0FFF80
07FF00
01FC00
ENDCHAR
STARTCHAR 0068
ENCODING 104
SWIDTH 540 0
DWIDTH 18 0
BBX 24 39 0 -13
BITMAP
3E0000
7F0000
E38000
C18000
C18000
C18000
C18000
C1F800
C1FE00
C10F00
C00380
C001C0
C000C0
C000E0
C0E060
C1F060
C1F060
C1F060
C1F060
C1B060
C1B060
C1B060
C1B060
C1B060
C1B060
C1B060
E3B060
FFB07C
FFB03E
FFB007
7F3803
3E3C03
003E03
001F87
001FFF
000FFF
0007FF
0003FE
0000FC
ENDCHAR
STARTCHAR 0069
ENCODING 105
SWIDTH 240 0
DWIDTH 8 0
BBX 10 32 -1 -6
BITMAP
1F00
3F80
71C0
60C0
E0C0
40C0
60C0
71C0
FFC0
7FC0
71C0
7180
6180
6180
6180
6180
6180
6180
6180
6180
6180
6180
6180
6180
6180
7180
7180
7F80
3F80
3F80
3F80
0E00
ENDCHAR
STARTCHAR 006A
ENCODING 106
SWIDTH 270 0
DWIDTH 9 0
BBX 14 39 -4 -13
BITMAP
00E0
03F8
0318
060C
060C
060C
060C
071C
07FC
07FC
071C
060C
060C
060C
060C
060C
060C
060C
060C
060C
060C
060C
060C
060C
060C
060C
060C
3E0C
7C0C
E00C
C01C
C03C
C07C
E1F8
FFF8
FFF0
FFE0
7FC0
3F00
ENDCHAR
STARTCHAR 006B
ENCODING 107
SWIDTH 510 0
DWIDTH 17 0
BBX 23 39 0 -13
BITMAP
3E0000
7F0000
E38000
C18000
C18000
C18000
C18000
C19E00
C1BF00
C1F380
C1E180
C1E180
C1E180
C1C180
C00380
C00380
C00780
C00380
C00180
C001C0
C1C0C0
C1E0C0
C1E0C0
C1E0C0
C1E0C0
C1E0C0
E3E0C0
FFE0F8
FFE07C
FFF00E
7F7006
3E7806
007C06
003F0E
003FFE
001FFE
000FFE
0007FC
0001F8
ENDCHAR
STARTCHAR 006C
ENCODING 108
SWIDTH 240 0
DWIDTH 8 0
BBX 9 32 0 -6
BITMAP
3E00
7F00
E380
C180
C180
C180
C180
C180
C180
C180
C180
C180
C180
C180
C180
C180
C180
C180
C180
C180
C180
C180
C180
C180
C180
C180
E380
FF80
FF80
FF80
7F00
3E00
ENDCHAR
STARTCHAR 006D
ENCODING 109
SWIDTH 810 0
DWIDTH 27 0
BBX 33 32 0 -13
BITMAP
03F9FC0000
0FFFFF0000
1E06078000
380001C000
700000E000
6000006000
E000007000
C0E0703000
C1F0783000
C1F0783000
C1F0783000
C1F0783000
C1B0783000
C1B0783000
C1B0783000
C1B0783000
C1B0783000
C1B0783000
C1B0783000
E3B8F83000
FFBFF83E00
FFBFF81F00
FFBFF80380
7F1FDC0180
3E0F9E0180
00001F0180
00000FC380
00000FFF80
000007FF80
000003FF80
000001FF00
0000007E00
ENDCHAR
STARTCHAR 006E
ENCODING 110
SWIDTH 540 0
DWIDTH 18 0
BBX 24 32 0 -13
BITMAP
03F800
0FFE00
1E0F00
380380
7001C0
6000C0
E000E0
C0E060
C1F060
C1F060
C1F060
C1F060
C1B060
C1B060
C1B060
C1B060
C1B060
C1B060
C1B060
E3B060
FFB07C
FFB03E
FFB007
7F3803
3E3C03
003E03
001F87
001FFF
000FFF
0007FF
0003FE
0000FC
ENDCHAR
STARTCHAR 006F
ENCODING 111
SWIDTH 600 0
DWIDTH 20 0
BBX 21 25 0 -6
BITMAP
01FC00
07FF00
0F0780
1C01C0
3800E0
700070
600030
E07838
C0FC18
C1FE18
C1FE18
C1FE18
C1FE18
C0FC18
E07838
E00038
F00078
F000F8
7C01F0
7F07F0
3FFFE0
1FFFC0
0FFF80
07FF00
01FC00
ENDCHAR
STARTCHAR 0070
ENCODING 112
SWIDTH 600 0
DWIDTH 20 0
BBX 21 32 0 -13
BITMAP
01FC00
07FF00
0F0780
1C01C0
3000E0
700070
600030
E07838
C0FC18
C1FE18
C1FE18
C1FE18
C1DE18
C1FC18
C1F838
C1C038
C18078
C18078
C180F0
C1C3F0
C1FFE0
C1FFC0
C1FF80
C1FF00
C1FC00
C18000
E38000
FF8000
FF8000
FF8000
7F0000
3E0000
ENDCHAR
STARTCHAR 0071
ENCODING 113
SWIDTH 600 0
DWIDTH 20 0
BBX 21 32 0 -13
BITMAP
01FC00
07FF00
0F0780
1C01C0
3800E0
700070
600030
E07838
C0FC18
C1FE18
C1FE18
C1FE18
C1EE18
C0FE18
E0FE18
E00E18
F00618
F80618
7C0618
7F0E18
3FFE18
1FFE18
0FFE18
07FE18
01FE18
000E18
000F38
000FF8
000FF8
000FF8
0007F0
0003E0
ENDCHAR
STARTCHAR 0072
ENCODING 114
SWIDTH 360 0
DWIDTH 12 0
BBX 14 25 0 -6
BITMAP
03F0
0FF8
1E1C
380C
700C
600C
E01C
C0FC
C1FC
C1FC
C1F8
C1F0
C180
C180
C180
C180
C180
C180
C180
E380
FF80
FF80
FF80
7F00
3E00
ENDCHAR
STARTCHAR 0073
ENCODING 115
SWIDTH 480 0
DWIDTH 16 0
BBX 17 25 0 -6
BITMAP
003E00
00FF00
01C380
030180
060180
060180
0C0380
0C1F80
0C1F80
0C1F80
0C1F00
0C1E00
0C1800
3C1800
7C1800
E01800
C03800
C07800
C0F800
E1F000
FFF000
FFE000
FFC000
7F8000
3E0000
ENDCHAR
STARTCHAR 0074
ENCODING 116
SWIDTH 510 0
DWIDTH 17 0
BBX 19 29 0 -6
BITMAP
3E0000
7F0000
E38000
C18000
C1FF80
C1FFC0
C000E0
C00060
C00060
C00060
C000E0
C1FFE0
C1FFE0
C1F8E0
C1F060
C1F060
C1B060
C1F060
C0E060
E000E0
E000E0
F001E0
F803E0
7E0FC0
7FFFC0
3FFF80
1FFF00
0FFE00
03F800
ENDCHAR
STARTCHAR 0075
ENCODING 117
SWIDTH 540 0
DWIDTH 18 0
BBX 19 25 0 -6
BITMAP
3E0F80
7F1FC0
E3B8E0
C1B060
C1B060
C1B060
C1B060
C1B060
C1B060
C1B060
C1B060
C1B060
C1B060
C1F060
C0E060
E000E0
E000E0
F001E0
F803E0
7E0FC0
7FFFC0
3FFF80
1FFF00
0FFE00
03F800
ENDCHAR
STARTCHAR 0076
ENCODING 118
SWIDTH 510 0
DWIDTH 17 0
BBX 20 25 -1 -6
BITMAP
1E0780
3F0FC0
739CE0
619860
60F870
60F060
60F060
E060E0
7060E0
7061E0
7001C0
3801C0
3803C0
3C0380
1C0380
1C0700
0E0700
0E0F00
0F0E00
071E00
07FC00
07FC00
03FC00
01F800
00F000
ENDCHAR
STARTCHAR 0077
ENCODING 119
SWIDTH 810 0
DWIDTH 27 0
BBX 28 25 0 -6
BITMAP
3E0F87C0
7F1FCFE0
E3B8FC70
C1B07830
C1B07830
C1B07830
C1B07830
C1B07830
C1B07830
C1B07830
C1B07830
C1B07830
C1B07830
C1F07830
C0E07030
E0000070
E0000070
F00000F0
F80001F0
7C0607E0
7FFFFFE0
3FFFFFC0
1FFFFF80
0FFFFF00
03F9FC00
ENDCHAR
STARTCHAR 0078
ENCODING 120
SWIDTH 540 0
DWIDTH 18 0
BBX 19 25 0 -6
BITMAP
3E0F80
7F1FC0
E3B8E0
C1B060
C1B060
C1B060
C1F060
C0E060
E000E0
E000E0
F001E0
7001C0
6000C0
6000C0
C0E060
C1F060
C1F060
C1F060
C1F060
E3B8E0
FFBFE0
FFBFE0
FFBFE0
7F1FC0
3E0F80
ENDCHAR
STARTCHAR 0079
ENCODING 121
SWIDTH 540 0
DWIDTH 18 0
BBX 19 32 0 -13
BITMAP
3E0F80
7F1FC0
E3B8E0
C1B060
C1B060
C1B060
C1B060
C1B060
C1B060
C1B060
C1B060
C1B060
C1B060
C1F060
C0E060
E00060
E00060
F00060
780060
7E1060
3FF060
3FE060
1F00E0
0600E0
0601E0
0603E0
070FC0
07FFC0
07FF80
07FF00
03FE00
01F800
ENDCHAR
STARTCHAR 007A
ENCODING 122
SWIDTH 540 0
DWIDTH 18 0
BBX 20 25 0 -6
BITMAP
1FFF80
3FFFE0
700060
600030
600060
600060
7000F0
7F80F0
7F81E0
7F03E0
3E07C0
1C0FC0
381F80
703F00
707F80
E00180
C001C0
C000C0
C001C0
C001C0
FFFFC0
FFFFC0
FFFF80
FFFF80
3FFE00
ENDCHAR
STARTCHAR 007B
ENCODING 123
SWIDTH 390 0
DWIDTH 13 0
BBX 15 41 0 -12
BITMAP
03F8
0FFC
1C0E
3806
7006
600E
C0FE
C1FE
C1FE
C1FC
C1F8
C180
C180
C180
C180
C180
C180
C180
C180
C180
C180
C180
C180
C180
C180
C180
C180
C180
C180
C1F8
C0FC
C00E
E006
F006
F806
7C0E
7FFE
3FFE
1FFE
0FFC
03F8
ENDCHAR
STARTCHAR 007C
ENCODING 124
SWIDTH 240 0
DWIDTH 8 0
BBX 9 38 0 -9
BITMAP
3E00
7F00
E380
C180
C180
C180
C180
C180
C180
C180
C180
C180
C180
C180
C180
C180
C180
C180
C180
C180
C180
C180
C180
C180
C180
C180
C180
C180
C180
C180
C180
C180
E380
FF80
FF80
FF80
7F00
3E00
ENDCHAR
STARTCHAR 007D
ENCODING 125
SWIDTH 390 0
DWIDTH 13 0
BBX 15 41 0 -12
BITMAP
3F80
7FE0
E0F0
C038
C01C
E00C
FE06
FF06
FF06
7F06
3F06
0306
0306
0306
0306
0306
0306
0306
0306
0306
0306
0306
0306
0306
0306
0306
0306
0306
0306
3F06
7E06
E006
C00E
C01E
C03E
E07C
FFFC
FFF8
FFF0
7FE0
3F80
ENDCHAR
STARTCHAR 007E
ENCODING 126
SWIDTH 450 0
DWIDTH 15 0
BBX 16 14 0 12
BITMAP
0F00
3FF8
70FE
E047
C003
C003
C003
E207
FF8F
FFFF
FFFF
7FFE
3FFC
00F0
ENDCHAR
STARTCHAR 00A1
ENCODING 161
SWIDTH 240 0
DWIDTH 8 0
BBX 10 32 -1 -6
BITMAP
1E00
3F80
6180
C0C0
C0C0
C0C0
40C0
E1C0
FFC0
FFC0
73C0
6180
6180
6180
6180
6180
6180
6180
6180
6180
6180
6180
6180
6180
6180
6180
7380
7F80
7F80
7F80
3F00
1E00
ENDCHAR
STARTCHAR 00A2
ENCODING 162
SWIDTH 390 0
DWIDTH 13 0
BBX 15 32 0 -6
BITMAP
03C0
0FE0
0C60
0C30
0C38
0DCC
1A0C
3006
600E
600E
C07E
C1FE
C1FC
C1FC
C1F0
C1C0
C1F0
C07C
E00C
E00E
F006
F80E
7E0C
7DFE
3C3E
1C3C
0C7C
0FF8
0FF0
0FE0
0FE0
03C0
ENDCHAR
STARTCHAR 00A3
ENCODING 163
SWIDTH 600 0
DWIDTH 20 0
BBX 22 32 0 -6
BITMAP
03F000
0FFC00
1C0C00
380E00
600600
E00E00
C00E00
C0FE00
C1FE00
C1FE00
C00600
C00300
C00300
C007E0
C1FFF8
C1FF18
C1FF1C
C1FF0C
C1FF0C
C1FE0C
C1FE0C
C0001C
C0001C
C0003C
C00038
C00078
C001F8
FFFFF0
FFFFF0
FFFFE0
7FFFC0
3FFF00
ENDCHAR
STARTCHAR 00A4
ENCODING 164
SWIDTH 570 0
DWIDTH 19 0
BBX 21 32 -1 -6
BITMAP
0007E0
001FF0
007C18
00F018
01C018
038018
030018
1E03F8
7E07F8
600038
C00038
C00030
600030
787FF0
F87FF0
600070
600030
C00030
600030
600070
FE07F0
FE03F8
7F0018
7F8018
1FC018
07E018
03FC18
01FFF8
00FFF8
007FF8
001FF0
0007E0
ENDCHAR
STARTCHAR 00A5
ENCODING 165
SWIDTH 570 0
DWIDTH 19 0
BBX 21 35 0 -6
BITMAP
1E0780
3F8FE0
719C60
60D830
60D830
60D830
60D830
60D830
60D830
60D830
60F030
607070
600070
7000F0
F001F0
C00030
C00018
C00018
C00038
FF07F8
E00038
C00010
C00018
C00018
E00038
FF07F8
FF07F8
FF07F0
7F0FF0
3F8FC0
03FE00
03FC00
03FC00
01F800
00F000
ENDCHAR
STARTCHAR 00A7
ENCODING 167
SWIDTH 690 0
DWIDTH 23 0
BBX 24 32 0 -6
BITMAP
001F00
007F80
00E0C0
0180C0
030078
0700FE
060086
060706
060C03
060C07
060807
06083F
06087F
06087E
06087E
0E0878
7C1860
F81860
C01860
C03860
C030E0
C060E0
C380E0
FE01C0
FE01C0
FE03C0
7E0FC0
3FFF80
07FF00
07FF00
03FC00
01F000
ENDCHAR
STARTCHAR 00A8
ENCODING 168
SWIDTH 450 0
DWIDTH 15 0
BBX 16 13 0 25
BITMAP
3EF8
7FFC
E3C6
C186
C083
C083
4187
E3C7
FFFF
FFFE
FFFE
7FFC
3EF8
ENDCHAR
STARTCHAR 00A9
ENCODING 169
SWIDTH 810 0
DWIDTH 27 0
BBX 28 32 0 -6
BITMAP
003F8000
01FFF000
03C07C00
0F001E00
1C000700
38000380
30000180
701F80C0
603FE0C0
E0F1F060
C0C1F860
C1CFF860
C19FF870
C19FFC30
C19FFC30
C19FFC30
C19FF870
C18FF870
C0C1F870
E0F1F070
E03FE0E0
F01F80E0
F00001E0
780003C0
7C0007C0
3F001F80
3FC07F80
1FFFFF00
0FFFFE00
03FFFC00
01FFF000
003F8000
ENDCHAR
STARTCHAR 00AA
ENCODING 170
SWIDTH 1110 0
DWIDTH 37 0
BBX 37 34 1 1
BITMAP
0003800000
000FFE0000
001FFF8000
001FFFE000
003FFFF000
007FFFF800
007FFFFC00
00FF07FC00
00FE03FE00
00FE01FE00
01FC00FF00
03FC007F00
07FC003F80
3FFC003F80
7FF8001F80
7FFF83FF80
0FF8000F80
0FF8000F80
1FFB878F98
3FE5C34FF8
7FC0000FF8
7FC0000FF8
3FC0000FF0
1FC0000FF0
FFE0001FF0
7FE0781FC0
3FF0FC3FC0
1FF8847FC0
1FFC7C7F80
0FFE38FE00
03E701FE00
0003873800
0001FC0000
0000780000
ENDCHAR
STARTCHAR 00AB
ENCODING 171
SWIDTH 540 0
DWIDTH 18 0
BBX 19 19 0 -3
BITMAP
078F00
0FFFC0
1C78C0
3870E0
702060
E040E0
C080E0
C081E0
C081E0
C080E0
E040E0
F02060
F870E0
FC78E0
7FFFE0
3FFFE0
1FFFC0
0FDFC0
078700
ENDCHAR
STARTCHAR 00AC
ENCODING 172
SWIDTH 1350 0
DWIDTH 45 0
BBX 44 34 1 0
BITMAP
000070000000
0001FF800000
0003FFF00000
0007FFFC0000
000FFFFF0000
001FFFFF8000
001FFFFFC000
003FF07FE000
003FC03FF000
007F800FF800
007F8007F800
00FF0003FC00
01FF0003FC00
07FF0001FE00
3FFE0000FE00
FFFE78E0FE00
7FFE00107E00
07FC00007E00
0FFDF8F87E20
1FF8FBF07F70
7FF09F707FF0
FFC07D707FF0
7FE079E07FE0
3FE000007FC0
3FF00000FFC0
FFF00600FF80
3FF81F81FF00
3FFC0003FF00
3FEE0F87FE00
0FC7060FF000
0001C03FF000
0000F0E3C000
00003FC00000
00000F000000
ENDCHAR
STARTCHAR 00AE
ENCODING 174
SWIDTH 810 0
DWIDTH 27 0
BBX 28 32 0 -6
BITMAP
003F8000
01FFF000
03C07C00
0F001E00
1C000700
38000380
30000180
701F80C0
603FE0C0
E0F0F060
C0E03860
C1CE3860
C1CE1870
C1CF1C30
C1CE3C30
C1CE7C30
C1C8F870
C1C9F870
C0C87870
E0CC7070
E03FE0E0
F01F80E0
F00001E0
780003C0
7C0007C0
3F001F80
3FC07F80
1FFFFF00
0FFFFE00
03FFFC00
01FFF000
003F8000
ENDCHAR
STARTCHAR 00AF
ENCODING 175
SWIDTH 570 0
DWIDTH 19 0
BBX 16 12 2 18
BITMAP
3FFC
7FFE
E007
C003
C003
C003
E007
FFFF
FFFF
FFFF
7FFE
3FFC
ENDCHAR
STARTCHAR 00B0
ENCODING 176
SWIDTH 270 0
DWIDTH 9 0
BBX 11 15 0 11
BITMAP
1F00
3F80
71C0
E0E0
C060
C660
C660
4060
E0E0
F1E0
FFE0
FFE0
7FC0
3F80
1F00
ENDCHAR
STARTCHAR 00B1
ENCODING 177
SWIDTH 480 0
DWIDTH 16 0
BBX 17 26 0 -6
BITMAP
03C000
07E000
0C3000
0C1000
3C1C00
7C1E00
C00300
C00180
C00180
C00380
FC1F80
FC1F80
FC1F80
FE3F00
FFFF00
E00300
C00300
C00180
C00180
C00380
E00380
FFFF80
FFFF80
FFFF00
7FFF00
3FFE00
ENDCHAR
STARTCHAR 00B4
ENCODING 180
SWIDTH 300 0
DWIDTH 10 0
BBX 12 17 -1 25
BITMAP
0F80
1FC0
18E0
3060
3060
7060
6070
6060
C0E0
C0E0
60E0
F1E0
FFC0
7FC0
7F80
3F80
1E00
ENDCHAR
STARTCHAR 00B5
ENCODING 181
SWIDTH 720 0
DWIDTH 24 0
BBX 25 32 0 -13
BITMAP
3C0F0000
7F1FC000
E338C000
C1B0E000
C1B06000
C1B06000
C1B06000
C1B06000
C1B06000
C1B06000
C1B06000
C1B06000
C1B06000
C1E07C00
C0E03F00
C0000300
C0000380
C0000180
C0060380
C11F8380
C1FFFF80
C1FFFF80
C1FFFF00
C1F9FF00
C1F0FC00
C3800000
E3800000
FF800000
FF800000
FF000000
7F000000
3C000000
ENDCHAR
STARTCHAR 00B6
ENCODING 182
SWIDTH 720 0
DWIDTH 24 0
BBX 26 32 0 -6
BITMAP
01FFFE00
07FFFF80
0F000180
380000C0
300000C0
600000C0
E00000C0
C061E0C0
C1E1E0C0
C1E1E0C0
C1E1E0C0
C1E1E0C0
C1E1E0C0
C1E1E0C0
C061E0C0
E001E0C0
F001E0C0
F801E0C0
FC01E0C0
7FC1E0C0
7FE1E0C0
3FE1E0C0
1FE1E0C0
07E1E0C0
01E1E0C0
00E1E1C0
00E3F1C0
00FFFFC0
00FFFFC0
007FFF80
007F3F80
001E1E00
ENDCHAR
STARTCHAR 00B7
ENCODING 183
SWIDTH 240 0
DWIDTH 8 0
BBX 10 14 0 -6
BITMAP
1E00
7F00
6380
E1C0
C0C0
C0C0
C0C0
41C0
E1C0
FFC0
FFC0
7F80
7F80
1E00
ENDCHAR
STARTCHAR 00B8
ENCODING 184
SWIDTH 420 0
DWIDTH 14 0
BBX 11 11 1 -11
BITMAP
03E0
03E0
03E0
03E0
03E0
07E0
7FE0
FFC0
FF80
FF00
7E00
ENDCHAR
STARTCHAR 00BA
ENCODING 186
SWIDTH 1110 0
DWIDTH 37 0
BBX 37 34 1 1
BITMAP
0003800000
000FFE0000
001FFF8000
001FFFE000
003FFFF000
007FFFF800
007FFFFC00
00FF07FC00
00FE03FE00
00FE01FE00
01FC00FF00
03FC007F00
07FC003F80
3FFC003F80
7FF8001F80
7FFF83FF80
0FF8000F80
0FF8000F80
1FFB878F98
3FE5C34FF8
7FC0000FF8
7FC0000FF8
3FC0000FF0
1FC0000FF0
FFE0001FF0
7FE0781FC0
3FF0FC3FC0
1FF8847FC0
1FFC7C7F80
0FFE38FE00
03E701FE00
0003873800
0001FC0000
0000780000
ENDCHAR
STARTCHAR 00BB
ENCODING 187
SWIDTH 540 0
DWIDTH 18 0
BBX 19 19 0 -3
BITMAP
3C7800
7EFC00
E7CE00
C38700
C18380
C081C0
E040C0
F060E0
F060E0
E040E0
C081E0
C183E0
C387C0
E7CFC0
FFFF80
FFFF00
FFFE00
7EFC00
3C7800
ENDCHAR
STARTCHAR 00BF
ENCODING 191
SWIDTH 600 0
DWIDTH 20 0
BBX 21 32 0 -6
BITMAP
003E00
007F00
00E380
00C180
00C0C0
00C0C0
00C180
03E3C0
0FFFC0
1FFF80
3E0180
7800C0
700080
E001C0
E07FF0
C0FF70
C1FE38
C1FE18
C1FE18
C1DC38
C1FC38
C07838
E00038
E00070
F000F0
F801F0
7E07E0
3FFFE0
3FFFC0
1FFF80
07FF00
01F800
ENDCHAR
STARTCHAR 00C0
ENCODING 192
SWIDTH 630 0
DWIDTH 21 0
BBX 26 54 0 -13
BITMAP
01E00000
07F00000
06380000
0C180000
0C0C0000
0C0C0000
0C0E0000
0E060000
0E060000
0E060000
0F060000
078E0000
07FE0000
03FE0000
03FC0000
01FC0000
07FF0000
0F078000
1C01C000
30006000
70007000
60003000
E0783800
C0FC1800
C1FE1800
C1FE1800
C1FE1800
C1DE1800
C1FC1800
C1F81800
C1C01800
C1801800
C1801800
C1801800
C1C61800
C1FE1800
C1FE1800
C1FE1800
C1FE1800
C1FE1800
C1861800
E3861800
FF861F00
FF860F80
FF8601C0
7F0700C0
3E0780C0
0007C0C0
0003E1C0
0003FFC0
0001FFC0
0000FFC0
00007F80
00001F00
ENDCHAR
STARTCHAR 00C1
ENCODING 193
SWIDTH 600 0
DWIDTH 20 0
BBX 26 55 0 -13
BITMAP
00780000
00FE0000
01C60000
01830000
03830000
03030000
07030000
06070000
06070000
060F0000
060F0000
071E0000
07FE0000
07FC0000
03FC0000
03F80000
01FC0000
07FF0000
0F078000
1C01C000
30006000
70007000
60003000
E0783800
C0FC1800
C1FE1800
C1FE1800
C1FE1800
C1DE1800
C1FC1800
C1F81800
C1C01800
C1801800
C1801800
C1801800
C1C61800
C1FE1800
C1FE1800
C1FE1800
C1FE1800
C1FE1800
C1861800
E3861800
FF861F00
FF860F80
FF8601C0
7F0700C0
3E0780C0
0007C0C0
0003E1C0
0003FFC0
0001FFC0
0000FFC0
00007F80
00001F00
ENDCHAR
STARTCHAR 00C2
ENCODING 194
SWIDTH 630 0
DWIDTH 21 0
BBX 26 51 0 -13
BITMAP
00700000
01FC0000
038E0000
07070000
0E038000
0C018000
1800C000
1820C000
1870C000
1CF1C000
1FFFC000
1FFFC000
1FFFC000
0FFF8000
0F8F8000
1C01C000
30006000
70007000
60003000
E0783800
C0FC1800
C1FE1800
C1FE1800
C1FE1800
C1DE1800
C1FC1800
C1F81800
C1C01800
C1801800
C1801800
C1801800
C1C61800
C1FE1800
C1FE1800
C1FE1800
C1FE1800
C1FE1800
C1861800
E3861800
FF861F00
FF860F80
FF8601C0
7F0700C0
3E0780C0
0007C0C0
0003E1C0
0003FFC0
0001FFC0
0000FFC0
00007F80
00001F00
ENDCHAR
STARTCHAR 00C3
ENCODING 195
SWIDTH 570 0
DWIDTH 19 0
BBX 26 51 0 -13
BITMAP
01E00000
07FF0000
0E1FC000
1C08E000
18006000
18006000
18006000
1C40E000
1FF1E000
1FFFE000
1FFFE000
0FFFC000
07FF8000
07FF0000
0F078000
1C01C000
30006000
70007000
60003000
E0783800
C0FC1800
C1FE1800
C1FE1800
C1FE1800
C1DE1800
C1FC1800
C1F81800
C1C01800
C1801800
C1801800
C1801800
C1C61800
C1FE1800
C1FE1800
C1FE1800
C1FE1800
C1FE1800
C1861800
E3861800
FF861F00
FF860F80
FF8601C0
7F0700C0
3E0780C0
0007C0C0
0003E1C0
0003FFC0
0001FFC0
0000FFC0
00007F80
00001F00
ENDCHAR
STARTCHAR 00C4
ENCODING 196
SWIDTH 570 0
DWIDTH 19 0
BBX 26 53 0 -13
BITMAP
03CF0000
0FFFC000
0C38C000
18106000
18106000
18106000
08106000
1C38E000
1FFFE000
1FFFE000
0FFFC000
0FFFC000
03CF0000
00000000
01FC0000
07FF0000
0F078000
1C01C000
30006000
70007000
60003000
E0783800
C0FC1800
C1FE1800
C1FE1800
C1FE1800
C1DE1800
C1FC1800
C1F81800
C1C01800
C1801800
C1801800
C1801800
C1C61800
C1FE1800
C1FE1800
C1FE1800
C1FE1800
C1FE1800
C1861800
E3861800
FF861F00
FF860F80
FF8601C0
7F0700C0
3E0780C0
0007C0C0
0003E1C0
0003FFC0
0001FFC0
0000FFC0
00007F80
00001F00
ENDCHAR
STARTCHAR 00C5
ENCODING 197
SWIDTH 570 0
DWIDTH 19 0
BBX 26 48 0 -13
BITMAP
00F80000
01FC0000
038E0000
07070000
06030000
06330000
06330000
02030000
07070000
07FF0000
07FF0000
0FFF8000
1FFFC000
31FC6000
70F87000
60003000
E0783800
C0FC1800
C1FE1800
C1FE1800
C1FE1800
C1DE1800
C1FC1800
C1F81800
C1C01800
C1801800
C1801800
C1801800
C1C61800
C1FE1800
C1FE1800
C1FE1800
C1FE1800
C1FE1800
C1861800
E3861800
FF861F00
FF860F80
FF8601C0
7F0700C0
3E0780C0
0007C0C0
0003E1C0
0003FFC0
0001FFC0
0000FFC0
00007F80
00001F00
ENDCHAR
STARTCHAR 00C6
ENCODING 198
SWIDTH 900 0
DWIDTH 30 0
BBX 31 32 0 -6
BITMAP
01F801F0
07FF0FFC
1E079E0C
3801F80E
3000E006
6000400E
E000001C
C07801FE
C0FC03FE
C1FC07FC
C1FE0FFC
C1FE1FFC
C1FC000C
C1FC000E
C1F80006
C180000C
C180000E
C1801FFE
C1800FFE
C18607FC
C1FE03FC
C1FE00FC
C1FE000C
C1FE000E
C1FE1006
C386180C
E3861E0E
FF87FFFE
FF87FFFE
FF07FFFC
7F07FFFC
3C07FDF0
ENDCHAR
STARTCHAR 00C7
ENCODING 199
SWIDTH 480 0
DWIDTH 16 0
BBX 19 38 0 -12
BITMAP
003F00
01FFC0
03C0C0
0F0060
1C0060
1800C0
3003C0
703FE0
607FE0
C0FFC0
C1FFC0
C1FF80
C1F000
C1C000
C18000
C18000
C18000
C1C000
C0E000
E07C00
F03F80
F003C0
7800C0
7C0060
3F0060
3FC0C0
1FFFC0
0F8FE0
070FC0
0307C0
030780
030E00
038F00
03FF00
03FE00
03FE00
01FC00
00F800
ENDCHAR
STARTCHAR 00C8
ENCODING 200
SWIDTH 480 0
DWIDTH 16 0
BBX 19 47 0 -6
BITMAP
01E000
07F000
063800
0C1800
0C0C00
0C0C00
0C0E00
0E0600
0E0600
0E0600
0F0600
078E00
07FE00
03FE00
03FC00
01FF80
00FFC0
03E0E0
070060
0E0060
1C0060
3800E0
300FE0
603FE0
607FE0
E0FFC0
C1FFC0
C000E0
C00060
C00060
C00060
C000E0
C1FFE0
E0FFE0
E0FFC0
E03FC0
F00FC0
7800E0
7C0060
3E0060
3F0060
1FE0E0
0FFFE0
07FFE0
03FFE0
00FFC0
003F80
ENDCHAR
STARTCHAR 00C9
ENCODING 201
SWIDTH 480 0
DWIDTH 16 0
BBX 19 48 0 -6
BITMAP
01E000
03F800
071800
060C00
0E0C00
0C0C00
1C0C00
181C00
181C00
183C00
183C00
1C7800
1FF800
1FF000
0FF000
0FE000
03DF80
00FFC0
03E0E0
070060
0E0060
1C0060
3800E0
300FE0
603FE0
607FE0
E0FFC0
C1FFC0
C000E0
C00060
C00060
C00060
C000E0
C1FFE0
E0FFE0
E0FFC0
E03FC0
F00FC0
7800E0
7C0060
3E0060
3F0060
1FE0E0
0FFFE0
07FFE0
03FFE0
00FFC0
003F80
ENDCHAR
STARTCHAR 00CA
ENCODING 202
SWIDTH 540 0
DWIDTH 18 0
BBX 19 45 0 -6
BITMAP
007000
01FC00
038E00
070700
0E0380
0C0180
1800C0
1820C0
1870C0
1CF1C0
1FFFC0
1FFFC0
1FFFC0
0FFF80
07FFC0
03E0E0
070060
0E0060
1C0060
3800E0
300FE0
603FE0
607FE0
E0FFC0
C1FFC0
C000E0
C00060
C00060
C00060
C000E0
C1FFE0
E0FFE0
E0FFC0
E03FC0
F00FC0
7800E0
7C0060
3E0060
3F0060
1FE0E0
0FFFE0
07FFE0
03FFE0
00FFC0
003F80
ENDCHAR
STARTCHAR 00CB
ENCODING 203
SWIDTH 480 0
DWIDTH 16 0
BBX 19 46 0 -6
BITMAP
03CF00
0FFFC0
0C38C0
181060
181060
181060
081060
1C38E0
1FFFE0
1FFFE0
0FFFC0
0FFFC0
03CF00
000000
001F80
00FFC0
03E0E0
070060
0E0060
1C0060
3800E0
300FE0
603FE0
607FE0
E0FFC0
C1FFC0
C000E0
C00060
C00060
C00060
C000E0
C1FFE0
E0FFE0
E0FFC0
E03FC0
F00FC0
7800E0
7C0060
3E0060
3F0060
1FE0E0
0FFFE0
07FFE0
03FFE0
00FFC0
003F80
ENDCHAR
STARTCHAR 00CC
ENCODING 204
SWIDTH 180 0
DWIDTH 6 0
BBX 11 47 -2 -6
BITMAP
1E00
7F00
6380
C180
C0C0
C0C0
C0E0
E060
E060
E060
F060
78E0
7FE0
3FE0
3FC0
1FC0
1FC0
38E0
3060
3060
3060
3060
3060
3060
3060
3060
3060
3060
3060
3060
3060
3060
3060
3060
3060
3060
3060
3060
3060
3060
3060
38E0
3FE0
3FE0
3FE0
1FC0
0F80
ENDCHAR
STARTCHAR 00CD
ENCODING 205
SWIDTH 180 0
DWIDTH 6 0
BBX 11 48 0 -6
BITMAP
0F00
1FC0
38C0
3060
7060
6060
E060
C0E0
C0E0
C1E0
C1E0
E3C0
FFC0
FF80
7F80
7F00
3E00
7F00
E380
C180
C180
C180
C180
C180
C180
C180
C180
C180
C180
C180
C180
C180
C180
C180
C180
C180
C180
C180
C180
C180
C180
C180
E380
FF80
FF80
FF80
7F00
3E00
ENDCHAR
STARTCHAR 00CE
ENCODING 206
SWIDTH 180 0
DWIDTH 6 0
BBX 15 45 -3 -6
BITMAP
0380
0FE0
1C70
3838
701C
600C
C006
C106
C386
E78E
FFFE
FFFE
FFFE
7FFC
3FF8
1C70
1830
1830
1830
1830
1830
1830
1830
1830
1830
1830
1830
1830
1830
1830
1830
1830
1830
1830
1830
1830
1830
1830
1830
1C70
1FF0
1FF0
1FF0
0FE0
07C0
ENDCHAR
STARTCHAR 00CF
ENCODING 207
SWIDTH 180 0
DWIDTH 6 0
BBX 16 46 -4 -6
BITMAP
1E78
7FFE
61C6
C083
C083
C083
4083
E1C7
FFFF
FFFF
7FFE
7FFE
1E78
0000
03E0
07F0
0E38
0C18
0C18
0C18
0C18
0C18
0C18
0C18
0C18
0C18
0C18
0C18
0C18
0C18
0C18
0C18
0C18
0C18
0C18
0C18
0C18
0C18
0C18
0C18
0E38
0FF8
0FF8
0FF8
07F0
03E0
ENDCHAR
STARTCHAR 00D0
ENCODING 208
SWIDTH 1110 0
DWIDTH 37 0
BBX 37 34 1 1
BITMAP
0003800000
000FFE0000
001FFF8000
001FFFE000
003FFFF000
007FFFF800
007FFFFC00
00FF07FC00
00FE03FE00
00FE01FE00
01FC00FF00
03FC007F00
07FC003F80
3FFC003F80
7FF8001F80
7FFF83FF80
0FF8000F80
0FF8000F80
1FFB878F98
3FE5C34FF8
7FC0000FF8
7FC0000FF8
3FC0000FF0
1FC0000FF0
FFE0001FF0
7FE0781FC0
3FF0FC3FC0
1FF8847FC0
1FFC7C7F80
0FFE38FE00
03E701FE00
0003873800
0001FC0000
0000780000
ENDCHAR
STARTCHAR 00D1
ENCODING 209
SWIDTH 480 0
DWIDTH 16 0
BBX 24 47 0 -13
BITMAP
078000
1FFC00
387F00
702380
600180
600180
600180
710380
7FFF80
7FFF80
7FFF80
3FFF80
7FFFC0
6078C0
E00060
C0E060
C1F060
C1F060
C1F060
C1F060
C1B060
C1B060
C1B060
C1B060
C1B060
C1B060
C1B060
C1B060
C1B060
C1B060
C1B060
C1B060
C1B060
C1B060
E3B060
FFB07C
FFB03E
FFB007
7F3803
3E3C03
003E03
001F87
001FFF
000FFF
0007FF
0003FE
0000FC
ENDCHAR
STARTCHAR 00D2
ENCODING 210
SWIDTH 780 0
DWIDTH 26 0
BBX 28 48 0 -6
BITMAP
003C0000
00FE0000
00C70000
01830000
01818000
01818000
0181C000
01C0C000
01C0C000
01C0C000
01E0C000
00F1C000
00FFC000
007FC000
007F8000
003F8000
003FC000
00FFF000
03E07C00
07000E00
0E000700
1C000380
380001C0
300F80C0
603FE060
607FF060
E0FFF070
C0FFF830
C1F0F830
C1C03830
C1C03C30
C1801830
C1801830
C0C03830
E0C03070
E070F070
E03FE070
F00F80F0
780001E0
7C0003E0
3E0007C0
3F000FC0
1FC03F80
0FFFFF00
07FFFE00
03FFFC00
00FFF000
003FC000
ENDCHAR
STARTCHAR 00D3
ENCODING 211
SWIDTH 780 0
DWIDTH 26 0
BBX 28 48 0 -6
BITMAP
0003C000
0007F000
000E3000
000C1800
001C1800
00181800
00381800
00303800
00303800
00307800
00307800
0038F000
003FF000
003FE000
001FE000
001FC000
003FC000
00FFF000
03E07C00
07000E00
0E000700
1C000380
380001C0
300F80C0
603FE060
607FF060
E0FFF070
C0FFF830
C1F0F830
C1C03830
C1C03C30
C1801830
C1801830
C0C03830
E0C03070
E070F070
E03FE070
F00F80F0
780001E0
7C0003E0
3E0007C0
3F000FC0
1FC03F80
0FFFFF00
07FFFE00
03FFFC00
00FFF000
003FC000
ENDCHAR
STARTCHAR 00D4
ENCODING 212
SWIDTH 780 0
DWIDTH 26 0
BBX 28 45 0 -6
BITMAP
00070000
001FC000
0038E000
00707000
00E03800
00C01800
01800C00
01820C00
01870C00
01CF1C00
01FFFC00
01FFFC00
01FFFC00
00FFF800
00FFF000
03E07C00
07000E00
0E000700
1C000380
380001C0
300F80C0
603FE060
607FF060
E0FFF070
C0FFF830
C1F0F830
C1C03830
C1C03C30
C1801830
C1801830
C0C03830
E0C03070
E070F070
E03FE070
F00F80F0
780001E0
7C0003E0
3E0007C0
3F000FC0
1FC03F80
0FFFFF00
07FFFE00
03FFFC00
00FFF000
003FC000
ENDCHAR
STARTCHAR 00D5
ENCODING 213
SWIDTH 780 0
DWIDTH 26 0
BBX 28 44 0 -6
BITMAP
001E0000
007FF000
00E1FC00
01C08E00
01800600
01800600
01800600
01C40E00
01FF1E00
01FFFE00
01FFFE00
00FFFC00
007FF800
00FFF000
03E07C00
07000E00
0E000700
1C000380
380001C0
300F80C0
603FE060
607FF060
E0FFF070
C0FFF830
C1F0F830
C1C03830
C1C03C30
C1801830
C1801830
C0C03830
E0C03070
E070F070
E03FE070
F00F80F0
780001E0
7C0003E0
3E0007C0
3F000FC0
1FC03F80
0FFFFF00
07FFFE00
03FFFC00
00FFF000
003FC000
ENDCHAR
STARTCHAR 00D6
ENCODING 214
SWIDTH 780 0
DWIDTH 26 0
BBX 28 46 0 -6
BITMAP
0079E000
01FFF800
01871800
03020C00
03020C00
03020C00
01020C00
03871C00
03FFFC00
03FFFC00
01FFF800
01FFF800
0079E000
00000000
003FC000
00FFF000
03E07C00
07000E00
0E000700
1C000380
380001C0
300F80C0
603FE060
607FF060
E0FFF070
C0FFF830
C1F0F830
C1C03830
C1C03C30
C1801830
C1801830
C0C03830
E0C03070
E070F070
E03FE070
F00F80F0
780001E0
7C0003E0
3E0007C0
3F000FC0
1FC03F80
0FFFFF00
07FFFE00
03FFFC00
00FFF000
003FC000
ENDCHAR
STARTCHAR 00D8
ENCODING 216
SWIDTH 810 0
DWIDTH 27 0
BBX 28 32 0 -6
BITMAP
003FC000
00FFF000
03E07C00
07000E00
0E000700
1C000380
380001C0
300F80C0
603FE060
607FF060
E0FFF070
C0FFF830
C1F0F830
C1C03830
C1C03C30
C1801830
C1801830
C0C03830
E0C03070
E070F070
E03FE070
F00F80F0
780001E0
7C0003E0
3E0007C0
3F000FC0
1FC03F80
0FFFFF00
07FFFE00
03FFFC00
00FFF000
003FC000
ENDCHAR
STARTCHAR 00D9
ENCODING 217
SWIDTH 480 0
DWIDTH 16 0
BBX 19 46 0 -6
BITMAP
01E000
07F000
063800
0C1800
0C0C00
0C0C00
0C0E00
0E0600
0E0600
0E0600
0F0600
078E00
07FE00
03FE00
3FFF80
7FFFC0
E3F8E0
C1B060
C1B060
C1B060
C1B060
C1B060
C1B060
C1B060
C1B060
C1B060
C1B060
C1B060
C1B060
C1B060
C1B060
C1B060
C1B060
C1B060
C1F060
C0E060
E000E0
E000E0
F001E0
F803E0
7E0FC0
7FFFC0
3FFF80
1FFF00
0FFE00
03F800
ENDCHAR
STARTCHAR 00DA
ENCODING 218
SWIDTH 480 0
DWIDTH 16 0
BBX 19 48 0 -6
BITMAP
007800
00FE00
01C600
018300
038300
030300
070300
060700
060700
060F00
060F00
071E00
07FE00
07FC00
03FC00
03F800
3EFF80
7F1FC0
E3B8E0
C1B060
C1B060
C1B060
C1B060
C1B060
C1B060
C1B060
C1B060
C1B060
C1B060
C1B060
C1B060
C1B060
C1B060
C1B060
C1B060
C1B060
C1F060
C0E060
E000E0
E000E0
F001E0
F803E0
7E0FC0
7FFFC0
3FFF80
1FFF00
0FFE00
03F800
ENDCHAR
STARTCHAR 00DB
ENCODING 219
SWIDTH 480 0
DWIDTH 16 0
BBX 19 45 0 -6
BITMAP
00E000
03F800
071C00
0E0E00
1C0700
180300
300180
304180
30E180
39E380
3FFF80
3FFF80
3FFF80
3FFF80
7F1FC0
E3B8E0
C1B060
C1B060
C1B060
C1B060
C1B060
C1B060
C1B060
C1B060
C1B060
C1B060
C1B060
C1B060
C1B060
C1B060
C1B060
C1B060
C1B060
C1F060
C0E060
E000E0
E000E0
F001E0
F803E0
7E0FC0
7FFFC0
3FFF80
1FFF00
0FFE00
03F800
ENDCHAR
STARTCHAR 00DC
ENCODING 220
SWIDTH 480 0
DWIDTH 16 0
BBX 19 46 0 -6
BITMAP
079E00
1FFF80
187180
3020C0
3020C0
3020C0
1020C0
3871C0
3FFFC0
3FFFC0
1FFF80
1FFF80
079E00
000000
3E0F80
7F1FC0
E3B8E0
C1B060
C1B060
C1B060
C1B060
C1B060
C1B060
C1B060
C1B060
C1B060
C1B060
C1B060
C1B060
C1B060
C1B060
C1B060
C1B060
C1B060
C1F060
C0E060
E000E0
E000E0
F001E0
F803E0
7E0FC0
7FFFC0
3FFF80
1FFF00
0FFE00
03F800
ENDCHAR
STARTCHAR 00DD
ENCODING 221
SWIDTH 480 0
DWIDTH 16 0
BBX 14 34 2 0
BITMAP
01C0
03E0
03E0
07F0
07E0
0FE0
0FC0
07C0
0380
0000
0000
F078
F87C
F87C
F87C
F87C
F87C
F87C
FCFC
FFFC
7FFC
7FFC
3FFC
0FFC
007C
F07C
F87C
F87C
FCFC
FFF8
7FF8
7FF0
3FE0
0FC0
ENDCHAR
STARTCHAR 00DE
ENCODING 222
SWIDTH 1110 0
DWIDTH 37 0
BBX 37 34 1 1
BITMAP
0003800000
000FFE0000
001FFF8000
001FFFE000
003FFFF000
007FFFF800
007FFFFC00
00FF07FC00
00FE03FE00
00FE01FE00
01FC00FF00
03FC007F00
07FC003F80
3FFC003F80
7FF8001F80
7FFF83FF80
0FF8000F80
0FF8000F80
1FFB878F98
3FE5C34FF8
7FC0000FF8
7FC0000FF8
3FC0000FF0
1FC0000FF0
FFE0001FF0
7FE0781FC0
3FF0FC3FC0
1FF8847FC0
1FFC7C7F80
0FFE38FE00
03E701FE00
0003873800
0001FC0000
0000780000
ENDCHAR
STARTCHAR 00DF
ENCODING 223
SWIDTH 510 0
DWIDTH 17 0
BBX 18 38 0 -12
BITMAP
03F000
0FFC00
3C1E00
700700
600300
E00180
C00180
C0E180
C1E0C0
C1F0C0
C1F0C0
C1E1C0
C101C0
C203C0
C203C0
C203C0
C101C0
C1C1C0
C1E0C0
C1F0C0
C1F0C0
C1E1C0
C101C0
C201C0
C20380
C20780
C21F80
C1FF00
C1FF00
C1FE00
C1FC00
C3F000
E38000
FF8000
FF8000
FF0000
7F0000
3C0000
ENDCHAR
STARTCHAR 00E0
ENCODING 224
SWIDTH 570 0
DWIDTH 19 0
BBX 22 42 0 -6
BITMAP
01E000
07F000
063800
0C1800
0C0C00
0C0C00
0C0E00
0E0600
0E0600
0E0600
0F0600
078E00
07FE00
03FE00
03FC00
01FC00
00F000
00FC00
07FF80
0F03C0
1C00E0
380070
700038
600018
E07818
C0FC0C
C1FE0C
C1FE0C
C1FE0C
C1EE0C
C0FE0C
E0FE0C
E00E0C
F0060C
F8060C
7C060C
7F0F1C
3FFFFC
1FFFFC
0FFFFC
07FFF8
01F9F0
ENDCHAR
STARTCHAR 00E1
ENCODING 225
SWIDTH 570 0
DWIDTH 19 0
BBX 22 45 0 -6
BITMAP
007800
00FE00
01C600
018300
038300
030300
070300
060700
060700
060F00
060F00
071E00
07FE00
07FC00
03FC00
03F800
00F000
000000
000000
000000
00FC00
07FF80
0F03C0
1C00E0
380070
700038
600018
E07818
C0FC0C
C1FE0C
C1FE0C
C1FE0C
C1EE0C
C0FE0C
E0FE0C
E00E0C
F0060C
F8060C
7C060C
7F0F1C
3FFFFC
1FFFFC
0FFFFC
07FFF8
01F9F0
ENDCHAR
STARTCHAR 00E2
ENCODING 226
SWIDTH 570 0
DWIDTH 19 0
BBX 22 38 0 -6
BITMAP
007000
01FC00
038E00
070700
0E0380
0C0180
1800C0
1820C0
1870C0
1CF1C0
1FFFC0
1FFFC0
1FFFC0
0FFF80
07FF80
0F03C0
1C00E0
380070
700038
600018
E07818
C0FC0C
C1FE0C
C1FE0C
C1FE0C
C1EE0C
C0FE0C
E0FE0C
E00E0C
F0060C
F8060C
7C060C
7F0F1C
3FFFFC
1FFFFC
0FFFFC
07FFF8
01F9F0
ENDCHAR
STARTCHAR 00E3
ENCODING 227
SWIDTH 570 0
DWIDTH 19 0
BBX 22 37 0 -6
BITMAP
01E000
07FF00
0E1FC0
1C08E0
180060
180060
180060
1C40E0
1FF1E0
1FFFE0
1FFFE0
0FFFC0
07FF80
07FF80
0F03C0
1C00E0
380070
700038
600018
E07818
C0FC0C
C1FE0C
C1FE0C
C1FE0C
C1EE0C
C0FE0C
E0FE0C
E00E0C
F0060C
F8060C
7C060C
7F0F1C
3FFFFC
1FFFFC
0FFFFC
07FFF8
01F9F0
ENDCHAR
STARTCHAR 00E4
ENCODING 228
SWIDTH 570 0
DWIDTH 19 0
BBX 22 39 0 -6
BITMAP
03CF00
0FFFC0
0C38C0
181060
181060
181060
081060
1C38E0
1FFFE0
1FFFE0
0FFFC0
0FFFC0
03CF00
000000
00FC00
07FF80
0F03C0
1C00E0
380070
700038
600018
E07818
C0FC0C
C1FE0C
C1FE0C
C1FE0C
C1EE0C
C0FE0C
E0FE0C
E00E0C
F0060C
F8060C
7C060C
7F0F1C
3FFFFC
1FFFFC
0FFFFC
07FFF8
01F9F0
ENDCHAR
STARTCHAR 00E5
ENCODING 229
SWIDTH 570 0
DWIDTH 19 0
BBX 22 39 0 -6
BITMAP
00F800
01FC00
038E00
070700
060300
063300
063300
020300
070700
078F00
07FF00
07FF00
03FE00
01FC00
00FC00
07FF80
0F03C0
1C00E0
380070
700038
600018
E07818
C0FC0C
C1FE0C
C1FE0C
C1FE0C
C1EE0C
C0FE0C
E0FE0C
E00E0C
F0060C
F8060C
7C060C
7F0F1C
3FFFFC
1FFFFC
0FFFFC
07FFF8
01F9F0
ENDCHAR
STARTCHAR 00E6
ENCODING 230
SWIDTH 930 0
DWIDTH 31 0
BBX 32 25 0 -6
BITMAP
01FC1FC0
07FF7FF0
1E03E03C
3800800E
30000006
60000003
E0000003
C0700607
C0FC0C0F
C1FC181F
C1FE183F
C1FE187E
C1DE1CFE
C1FE0FFC
C0FE07F8
E01F000C
E00F000E
F0078006
F80FC00C
7E0FF00C
3FFFFFFE
3FFFFFFE
1FFCFFFC
07FC7FFC
01F80FF0
ENDCHAR
STARTCHAR 00E7
ENCODING 231
SWIDTH 390 0
DWIDTH 13 0
BBX 15 31 0 -12
BITMAP
01F0
07FC
1E0C
380E
7006
600E
E00E
C07E
C1FE
C1FC
C1FC
C1F0
C1C0
C1F0
E07C
E00C
F006
F806
7E0E
7FFE
3E3E
1C1E
0C1C
0C18
0C18
0E38
0FFC
0FF8
0FF8
07F0
03E0
ENDCHAR
STARTCHAR 00E8
ENCODING 232
SWIDTH 510 0
DWIDTH 17 0
BBX 20 40 0 -6
BITMAP
01E000
07F000
063800
0C1800
0C0C00
0C0C00
0C0E00
0E0600
0E0600
0E0600
0F0600
078E00
07FE00
03FE00
03FC00
01FC00
07FF00
0F03C0
1C00E0
380070
700030
600030
E06030
C0C070
C180F0
C181F0
C183F0
C1C7E0
C0FFC0
E07F80
E001C0
F000C0
F800C0
7C00C0
7F01C0
3FFFC0
1FFFC0
0FFFC0
07FF80
01FF00
ENDCHAR
STARTCHAR 00E9
ENCODING 233
SWIDTH 510 0
DWIDTH 17 0
BBX 20 41 0 -6
BITMAP
007800
00FE00
01C600
018300
038300
030300
070300
060700
060700
060F00
060F00
071E00
07FE00
07FC00
03FC00
03F800
01FC00
07FF00
0F03C0
1C00E0
380070
700030
600030
E06030
C0C070
C180F0
C181F0
C183F0
C1C7E0
C0FFC0
E07F80
E001C0
F000C0
F800C0
7C00C0
7F01C0
3FFFC0
1FFFC0
0FFFC0
07FF80
01FF00
ENDCHAR
STARTCHAR 00EA
ENCODING 234
SWIDTH 510 0
DWIDTH 17 0
BBX 20 38 0 -6
BITMAP
007000
01FC00
038E00
070700
0E0380
0C0180
1800C0
1820C0
1870C0
1CF1C0
1FFFC0
1FFFC0
1FFFC0
0FFF80
07FF00
0F03C0
1C00E0
380070
700030
600030
E06030
C0C070
C180F0
C181F0
C183F0
C1C7E0
C0FFC0
E07F80
E001C0
F000C0
F800C0
7C00C0
7F01C0
3FFFC0
1FFFC0
0FFFC0
07FF80
01FF00
ENDCHAR
STARTCHAR 00EB
ENCODING 235
SWIDTH 510 0
DWIDTH 17 0
BBX 20 39 0 -6
BITMAP
079E00
1FFF80
187180
3020C0
3020C0
3020C0
1020C0
3871C0
3FFFC0
3FFFC0
1FFF80
1FFF80
079E00
000000
01FC00
07FF00
0F03C0
1C00E0
380070
700030
600030
E06030
C0C070
C180F0
C181F0
C183F0
C1C7E0
C0FFC0
E07F80
E001C0
F000C0
F800C0
7C00C0
7F01C0
3FFFC0
1FFFC0
0FFFC0
07FF80
01FF00
ENDCHAR
STARTCHAR 00EC
ENCODING 236
SWIDTH 180 0
DWIDTH 6 0
BBX 12 41 -3 -6
BITMAP
1E00
7F00
6380
C180
C0C0
C0C0
C0E0
E060
E060
E060
F060
78E0
7FE0
3FE0
3FC0
1FC0
0FC0
0FE0
1C70
1830
1830
1830
1830
1830
1830
1830
1830
1830
1830
1830
1830
1830
1830
1830
1830
1C70
1FF0
1FF0
1FF0
0FE0
07C0
ENDCHAR
STARTCHAR 00ED
ENCODING 237
SWIDTH 180 0
DWIDTH 6 0
BBX 11 41 0 -6
BITMAP
0F00
1FC0
38C0
3060
7060
6060
E060
C0E0
C0E0
C1E0
C1E0
E3C0
FFC0
FF80
7F80
7F00
3E00
7F00
E380
C180
C180
C180
C180
C180
C180
C180
C180
C180
C180
C180
C180
C180
C180
C180
C180
E380
FF80
FF80
FF80
7F00
3E00
ENDCHAR
STARTCHAR 00EE
ENCODING 238
SWIDTH 180 0
DWIDTH 6 0
BBX 15 38 -3 -6
BITMAP
0380
0FE0
1C70
3838
701C
600C
C006
C106
C386
E78E
FFFE
FFFE
FFFE
7FFC
3FF8
1C70
1830
1830
1830
1830
1830
1830
1830
1830
1830
1830
1830
1830
1830
1830
1830
1830
1C70
1FF0
1FF0
1FF0
0FE0
07C0
ENDCHAR
STARTCHAR 00EF
ENCODING 239
SWIDTH 180 0
DWIDTH 6 0
BBX 16 39 -4 -6
BITMAP
1E78
7FFE
61C6
C083
C083
C083
4083
E1C7
FFFF
FFFF
7FFE
7FFE
1E78
0000
03E0
07F0
0E38
0C18
0C18
0C18
0C18
0C18
0C18
0C18
0C18
0C18
0C18
0C18
0C18
0C18
0C18
0C18
0C18
0E38
0FF8
0FF8
0FF8
07F0
03E0
ENDCHAR
STARTCHAR 00F0
ENCODING 240
SWIDTH 1110 0
DWIDTH 37 0
BBX 37 34 1 1
BITMAP
0003800000
000FFE0000
001FFF8000
001FFFE000
003FFFF000
007FFFF800
007FFFFC00
00FF07FC00
00FE03FE00
00FE01FE00
01FC00FF00
03FC007F00
07FC003F80
3FFC003F80
7FF8001F80
7FFF83FF80
0FF8000F80
0FF8000F80
1FFB878F98
3FE5C34FF8
7FC0000FF8
7FC0000FF8
3FC0000FF0
1FC0000FF0
FFE0001FF0
7FE0781FC0
3FF0FC3FC0
1FF8847FC0
1FFC7C7F80
0FFE38FE00
03E701FE00
0003873800
0001FC0000
0000780000
ENDCHAR
STARTCHAR 00F1
ENCODING 241
SWIDTH 480 0
DWIDTH 16 0
BBX 24 44 0 -13
BITMAP
03C000
0FFE00
1C3F80
3811C0
3000C0
3000C0
3000C0
3881C0
3FE3C0
3FFFC0
3FFFC0
1FFF80
0FFF00
0FFE00
1E0F00
380380
7001C0
6000C0
E000E0
C0E060
C1F060
C1F060
C1F060
C1F060
C1B060
C1B060
C1B060
C1B060
C1B060
C1B060
C1B060
E3B060
FFB07C
FFB03E
FFB007
7F3803
3E3C03
003E03
001F87
001FFF
000FFF
0007FF
0003FE
0000FC
ENDCHAR
STARTCHAR 00F2
ENCODING 242
SWIDTH 570 0
DWIDTH 19 0
BBX 21 41 0 -6
BITMAP
01E000
07F000
063800
0C1800
0C0C00
0C0C00
0C0E00
0E0600
0E0600
0E0600
0F0600
078E00
07FE00
03FE00
03FC00
01FC00
01FC00
07FF00
0F0780
1C01C0
3800E0
700070
600030
E07838
C0FC18
C1FE18
C1FE18
C1FE18
C1FE18
C0FC18
E07838
E00038
F00078
F000F8
7C01F0
7F07F0
3FFFE0
1FFFC0
0FFF80
07FF00
01FC00
ENDCHAR
STARTCHAR 00F3
ENCODING 243
SWIDTH 570 0
DWIDTH 19 0
BBX 21 41 0 -6
BITMAP
007800
00FE00
01C600
018300
038300
030300
070300
060700
060700
060F00
060F00
071E00
07FE00
07FC00
03FC00
03F800
01FC00
07FF00
0F0780
1C01C0
3800E0
700070
600030
E07838
C0FC18
C1FE18
C1FE18
C1FE18
C1FE18
C0FC18
E07838
E00038
F00078
F000F8
7C01F0
7F07F0
3FFFE0
1FFFC0
0FFF80
07FF00
01FC00
ENDCHAR
STARTCHAR 00F4
ENCODING 244
SWIDTH 570 0
DWIDTH 19 0
BBX 21 38 0 -6
BITMAP
007000
01FC00
038E00
070700
0E0380
0C0180
1800C0
1820C0
1870C0
1CF1C0
1FFFC0
1FFFC0
1FFFC0
0FFF80
07FF00
0F0780
1C01C0
3800E0
700070
600030
E07838
C0FC18
C1FE18
C1FE18
C1FE18
C1FE18
C0FC18
E07838
E00038
F00078
F000F8
7C01F0
7F07F0
3FFFE0
1FFFC0
0FFF80
07FF00
01FC00
ENDCHAR
STARTCHAR 00F5
ENCODING 245
SWIDTH 570 0
DWIDTH 19 0
BBX 21 38 0 -6
BITMAP
01E000
07FF00
0E1FC0
1C08E0
180060
180060
180060
1C40E0
1FF1E0
1FFFE0
1FFFE0
0FFFC0
07FF80
01FE00
07FF00
0F0780
1C01C0
3800E0
700070
600030
E07838
C0FC18
C1FE18
C1FE18
C1FE18
C1FE18
C0FC18
E07838
E00038
F00078
F000F8
7C01F0
7F07F0
3FFFE0
1FFFC0
0FFF80
07FF00
01FC00
ENDCHAR
STARTCHAR 00F6
ENCODING 246
SWIDTH 570 0
DWIDTH 19 0
BBX 21 39 0 -6
BITMAP
03CF00
0FFFC0
0C38C0
181060
181060
181060
081060
1C38E0
1FFFE0
1FFFE0
0FFFC0
0FFFC0
03CF00
000000
01FC00
07FF00
0F0780
1C01C0
3800E0
700070
600030
E07838
C0FC18
C1FE18
C1FE18
C1FE18
C1FE18
C0FC18
E07838
E00038
F00078
F000F8
7C01F0
7F07F0
3FFFE0
1FFFC0
0FFF80
07FF00
01FC00
ENDCHAR
STARTCHAR 00F7
ENCODING 247
SWIDTH 1110 0
DWIDTH 37 0
BBX 37 34 1 1
BITMAP
0003800000
000FFE0000
001FFF8000
001FFFE000
003FFFF000
007FFFF800
007FFFFC00
00FF07FC00
00FE03FE00
00FE01FE00
01FC00FF00
03FC007F00
07FC003F80
3FFC003F80
7FF8001F80
7FFF83FF80
0FF8000F80
0FF8000F80
1FFB878F98
3FE5C34FF8
7FC0000FF8
7FC0000FF8
3FC0000FF0
1FC0000FF0
FFE0001FF0
7FE0781FC0
3FF0FC3FC0
1FF8847FC0
1FFC7C7F80
0FFE38FE00
03E701FE00
0003873800
0001FC0000
0000780000
ENDCHAR
STARTCHAR 00F8
ENCODING 248
SWIDTH 810 0
DWIDTH 27 0
BBX 28 32 0 -6
BITMAP
003FC000
00FFF000
03E07C00
07000E00
0E000700
1C000380
380001C0
300F80C0
603FE060
607FF060
E0FFF070
C0FFF830
C1F0F830
C1C03830
C1C03C30
C1801830
C1801830
C0C03830
E0C03070
E070F070
E03FE070
F00F80F0
780001E0
7C0003E0
3E0007C0
3F000FC0
1FC03F80
0FFFFF00
07FFFE00
03FFFC00
00FFF000
003FC000
ENDCHAR
STARTCHAR 00F9
ENCODING 249
SWIDTH 480 0
DWIDTH 16 0
BBX 19 40 0 -6
BITMAP
03C000
0FE000
0C7000
183000
181800
181800
181C00
1C0C00
1C0C00
1C0C00
1E0C00
0F1C00
0FFC00
07FC00
07F800
3FFF80
7FFFC0
E3B8E0
C1B060
C1B060
C1B060
C1B060
C1B060
C1B060
C1B060
C1B060
C1B060
C1B060
C1F060
C0E060
E000E0
E000E0
F001E0
F803E0
7E0FC0
7FFFC0
3FFF80
1FFF00
0FFE00
03F800
ENDCHAR
STARTCHAR 00FA
ENCODING 250
SWIDTH 480 0
DWIDTH 16 0
BBX 19 41 0 -6
BITMAP
007800
00FE00
01C600
018300
038300
030300
070300
060700
060700
060F00
060F00
071E00
07FE00
07FC00
03FC00
03F800
3EFF80
7F1FC0
E3B8E0
C1B060
C1B060
C1B060
C1B060
C1B060
C1B060
C1B060
C1B060
C1B060
C1B060
C1F060
C0E060
E000E0
E000E0
F001E0
F803E0
7E0FC0
7FFFC0
3FFF80
1FFF00
0FFE00
03F800
ENDCHAR
STARTCHAR 00FB
ENCODING 251
SWIDTH 480 0
DWIDTH 16 0
BBX 19 38 0 -6
BITMAP
00E000
03F800
071C00
0E0E00
1C0700
180300
300180
304180
30E180
39E380
3FFF80
3FFF80
3FFF80
3FFF80
7F1FC0
E3B8E0
C1B060
C1B060
C1B060
C1B060
C1B060
C1B060
C1B060
C1B060
C1B060
C1B060
C1F060
C0E060
E000E0
E000E0
F001E0
F803E0
7E0FC0
7FFFC0
3FFF80
1FFF00
0FFE00
03F800
ENDCHAR
STARTCHAR 00FC
ENCODING 252
SWIDTH 480 0
DWIDTH 16 0
BBX 19 39 0 -6
BITMAP
0F3C00
3FFF00
30E300
604180
604180
604180
204180
70E380
7FFF80
7FFF80
3FFF00
3FFF00
0F3C00
000000
3E0F80
7F1FC0
E3B8E0
C1B060
C1B060
C1B060
C1B060
C1B060
C1B060
C1B060
C1B060
C1B060
C1B060
C1F060
C0E060
E000E0
E000E0
F001E0
F803E0
7E0FC0
7FFFC0
3FFF80
1FFF00
0FFE00
03F800
ENDCHAR
STARTCHAR 00FE
ENCODING 254
SWIDTH 1110 0
DWIDTH 37 0
BBX 37 34 1 1
BITMAP
0003800000
000FFE0000
001FFF8000
001FFFE000
003FFFF000
007FFFF800
007FFFFC00
00FF07FC00
00FE03FE00
00FE01FE00
01FC00FF00
03FC007F00
07FC003F80
3FFC003F80
7FF8001F80
7FFF83FF80
0FF8000F80
0FF8000F80
1FFB878F98
3FE5C34FF8
7FC0000FF8
7FC0000FF8
3FC0000FF0
1FC0000FF0
FFE0001FF0
7FE0781FC0
3FF0FC3FC0
1FF8847FC0
1FFC7C7F80
0FFE38FE00
03E701FE00
0003873800
0001FC0000
0000780000
ENDCHAR
STARTCHAR 00FF
ENCODING 255
SWIDTH 540 0
DWIDTH 18 0
BBX 19 46 0 -13
BITMAP
0F3C00
3FFF00
30E300
604180
604180
604180
204180
70E380
7FFF80
7FFF80
3FFF00
3FFF00
0F3C00
000000
3E0F80
7F1FC0
E3B8E0
C1B060
C1B060
C1B060
C1B060
C1B060
C1B060
C1B060
C1B060
C1B060
C1B060
C1F060
C0E060
E00060
E00060
F00060
780060
7E1060
3FF060
3FE060
1F00E0
0600E0
0601E0
0603E0
070FC0
07FFC0
07FF80
07FF00
03FE00
01F800
ENDCHAR
STARTCHAR 0131
ENCODING 305
SWIDTH 180 0
DWIDTH 6 0
BBX 9 25 0 -6
BITMAP
3C00
7F00
E300
C180
C180
C180
C180
C180
C180
C180
C180
C180
C180
C180
C180
C180
C180
C180
C380
E380
FF80
FF80
FF00
7F00
3C00
ENDCHAR
STARTCHAR 0141
ENCODING 321
SWIDTH 1110 0
DWIDTH 37 0
BBX 37 34 1 1
BITMAP
0003800000
000FFE0000
001FFF8000
001FFFE000
003FFFF000
007FFFF800
007FFFFC00
00FF07FC00
00FE03FE00
00FE01FE00
01FC00FF00
03FC007F00
07FC003F80
3FFC003F80
7FF8001F80
7FFF83FF80
0FF8000F80
0FF8000F80
1FFB878F98
3FE5C34FF8
7FC0000FF8
7FC0000FF8
3FC0000FF0
1FC0000FF0
FFE0001FF0
7FE0781FC0
3FF0FC3FC0
1FF8847FC0
1FFC7C7F80
0FFE38FE00
03E701FE00
0003873800
0001FC0000
0000780000
ENDCHAR
STARTCHAR 0142
ENCODING 322
SWIDTH 1110 0
DWIDTH 37 0
BBX 37 34 1 1
BITMAP
0003800000
000FFE0000
001FFF8000
001FFFE000
003FFFF000
007FFFF800
007FFFFC00
00FF07FC00
00FE03FE00
00FE01FE00
01FC00FF00
03FC007F00
07FC003F80
3FFC003F80
7FF8001F80
7FFF83FF80
0FF8000F80
0FF8000F80
1FFB878F98
3FE5C34FF8
7FC0000FF8
7FC0000FF8
3FC0000FF0
1FC0000FF0
FFE0001FF0
7FE0781FC0
3FF0FC3FC0
1FF8847FC0
1FFC7C7F80
0FFE38FE00
03E701FE00
0003873800
0001FC0000
0000780000
ENDCHAR
STARTCHAR 0152
ENCODING 338
SWIDTH 1050 0
DWIDTH 35 0
BBX 38 32 0 -6
BITMAP
003F8003E0
01FFF01FF8
03C07C7C18
0F001EF01C
1C0007C00C
1800038018
3000010038
701F8003FC
607FC00FFC
E0FFE01FF8
C0FFF01FF8
C1FFF83FF8
C1E0F80018
C1C078001C
C18038000C
C180180018
C180180018
C180383FFC
C0C0701FFC
E0E0E01FF8
E07FC00FF8
F01F8103F8
F000038038
780003801C
7C0007E00C
3F001FF008
3FC07FFC18
1FFFFFFFFC
0FFFFEFFFC
03FFFC7FF8
01FFF01FF8
003FC007E0
ENDCHAR
STARTCHAR 0153
ENCODING 339
SWIDTH 900 0
DWIDTH 30 0
BBX 32 25 0 -6
BITMAP
01FC1FC0
07FF7FF0
1E03E03C
3800800E
30000006
60000003
E0000003
C0780607
C1FC0C0F
C1FC181F
C1FE183F
C1FE187E
C1FC1CFE
C1FC0FFC
C07807F8
E000000C
E000000E
F0008006
F801C00C
7E07F00C
3FFFFFFE
3FFFFFFE
1FFFFFFC
07FF3FFC
01FC0FF0
ENDCHAR
STARTCHAR 0160
ENCODING 352
SWIDTH 450 0
DWIDTH 15 0
BBX 17 41 0 -6
BITMAP
1E3C00
3F7E00
73E600
61C300
608300
600300
700700
780F00
780F00
7C3F00
3EFF00
3FFF80
1FFD80
0FF980
07F180
0DC380
0C1F80
0C1F80
0C1F80
0C1F00
0C1E00
0C1800
0C1800
0C1800
0C1800
0C1800
0C1800
0C1800
0C1800
3C1800
7C1800
E01800
C03800
C07800
C07800
E1F000
FFF000
FFE000
FFC000
7F8000
3E0000
ENDCHAR
STARTCHAR 0161
ENCODING 353
SWIDTH 450 0
DWIDTH 15 0
BBX 17 35 0 -6
BITMAP
1E3C00
3F7E00
73E600
61C300
608300
600300
700700
780F00
780F00
7C1F00
3E3E00
3FFF00
1FFF80
0FF980
07F180
07C180
0C0380
0C1F80
0C1F80
0C1F80
0C1F00
0C1E00
0C1800
3C1800
7C1800
E01800
C03800
C07800
C0F800
E1F000
FFF000
FFE000
FFC000
7F8000
3E0000
ENDCHAR
STARTCHAR 0178
ENCODING 376
SWIDTH 540 0
DWIDTH 18 0
BBX 19 46 0 -6
BITMAP
0F3C00
3FFF00
30E300
604180
604180
604180
204180
70E380
7FFF80
7FFF80
3FFF00
3FFF00
0F3C00
000000
3E0F80
7F1FC0
E3B8E0
C1B060
C1B060
C1B060
C1B060
C1B060
C1B060
C1B060
C1F060
C0E060
E00060
E00060
F00060
F80060
7E1060
C1F060
C1F060
C1F060
C1F060
C0E060
E000E0
E000E0
F001E0
F803E0
7E0FC0
7FFFC0
3FFF80
1FFF00
0FFE00
03F800
ENDCHAR
STARTCHAR 017D
ENCODING 381
SWIDTH 480 0
DWIDTH 16 0
BBX 20 41 0 -6
BITMAP
0F1E00
1FBF00
39F300
30E180
304180
300180
380380
3C0780
3C0780
3FFFC0
1FFFE0
3FFF70
3FFE30
37FC30
33F830
38E030
3FF030
3FE070
3FC070
1FC0F0
0F80E0
0381C0
0303C0
060380
0E0780
0C0700
1C0F00
180E00
301E00
303FC0
603FE0
E00070
C00030
C00030
C00030
E00070
FFFFF0
FFFFF0
FFFFF0
7FFFE0
3FFFC0
ENDCHAR
STARTCHAR 017E
ENCODING 382
SWIDTH 450 0
DWIDTH 15 0
BBX 20 35 0 -6
BITMAP
1E3C00
3F7E00
73E600
61C300
608300
600300
700700
780F00
780F00
7C1F00
3FFFC0
3FFFE0
7FFC70
6FF830
67F030
61C060
700070
7FC0F0
7F81F0
7F03E0
3E07E0
1C07C0
380F80
381F00
703F80
6001C0
E000C0
C000C0
C000C0
E001C0
FFFFC0
FFFFC0
FFFFC0
7FFF80
3FFF00
ENDCHAR
STARTCHAR 0192
ENCODING 402
SWIDTH 480 0
DWIDTH 16 0
BBX 20 39 -2 -13
BITMAP
000FC0
003FE0
00F070
01C030
038030
030030
070070
0607F0
060FF0
060FF0
060FE0
060F80
060C00
060E00
0E0F80
1E0FC0
3000C0
3000C0
3000C0
1801C0
3E0FC0
3E0FC0
3E0FC0
3E0F80
1E0F00
0E0C00
060C00
3E0C00
7C0C00
E01C00
C01C00
C03C00
C07C00
E1F800
FFF800
FFF000
FFE000
7FC000
3F0000
ENDCHAR
STARTCHAR 02C6
ENCODING 710
SWIDTH 390 0
DWIDTH 13 0
BBX 15 15 0 18
BITMAP
0780
0FC0
1CE0
3870
7038
E01C
C00E
C006
C306
E78E
FFFE
FFFE
FFFC
7FFC
3CF0
ENDCHAR
STARTCHAR 02C7
ENCODING 711
SWIDTH 390 0
DWIDTH 13 0
BBX 15 16 0 18
BITMAP
3C70
7EFC
E78C
C30E
C106
C006
C00E
E01E
F03E
F87C
FCFC
7FF8
3FF0
1FE0
0FC0
0780
ENDCHAR
STARTCHAR 02C9
ENCODING 713
SWIDTH 570 0
DWIDTH 19 0
BBX 16 12 2 18
BITMAP
3FFC
7FFE
E007
C003
C003
C003
E007
FFFF
FFFF
FFFF
7FFE
3FFC
ENDCHAR
STARTCHAR 02D8
ENCODING 728
SWIDTH 450 0
DWIDTH 15 0
BBX 14 15 1 18
BITMAP
3CF0
7FF8
E39C
C10C
C10C
C10C
C00C
E01C
F03C
F87C
FFFC
7FF8
3FF0
1FE0
0FC0
ENDCHAR
STARTCHAR 02D9
ENCODING 729
SWIDTH 450 0
DWIDTH 15 0
BBX 10 13 3 18
BITMAP
1E00
3F80
6180
E0C0
C0C0
C0C0
60C0
E1C0
FFC0
FFC0
7FC0
7F80
1E00
ENDCHAR
STARTCHAR 02DA
ENCODING 730
SWIDTH 270 0
DWIDTH 9 0
BBX 11 15 0 18
BITMAP
1E00
7F80
61C0
C0C0
C0C0
C660
C660
40E0
C0E0
E1E0
FFE0
FFC0
7FC0
7F80
1E00
ENDCHAR
STARTCHAR 02DB
ENCODING 731
SWIDTH 510 0
DWIDTH 17 0
BBX 11 11 5 -11
BITMAP
F800
F800
F800
F800
FC00
7C00
7FE0
7FE0
3FE0
1FE0
07E0
ENDCHAR
STARTCHAR 02DC
ENCODING 732
SWIDTH 390 0
DWIDTH 13 0
BBX 16 13 -1 18
BITMAP
0FBC
3FFE
78E7
6003
E003
C003
6003
638F
FFFF
7FFF
7FFE
3FFC
1FF8
ENDCHAR
STARTCHAR 02DD
ENCODING 733
SWIDTH 930 0
DWIDTH 31 0
BBX 29 27 2 0
BITMAP
7FFFFFF0
FFFFFFF8
E7FFBFF8
FFFFFFF8
E464A218
E96DAED8
EAEDACD8
E9C9A658
E453B358
EFFFFFF8
CFDBFFF8
FFD3FFF8
FFD3FFF8
F1D23C78
C0D21818
CE539198
CE53D3D8
CE5393D8
C24818D8
E24C3C58
FFFFFFF8
FFFFFFF8
FFFFDCE8
F74ACF68
EED6DD68
EFEB6FB8
FFFFFFF0
ENDCHAR
STARTCHAR 0394
ENCODING 916
SWIDTH 1110 0
DWIDTH 37 0
BBX 37 34 1 1
BITMAP
0003800000
000FFE0000
001FFF8000
001FFFE000
003FFFF000
007FFFF800
007FFFFC00
00FF07FC00
00FE03FE00
00FE01FE00
01FC00FF00
03FC007F00
07FC003F80
3FFC003F80
7FF8001F80
7FFF83FF80
0FF8000F80
0FF8000F80
1FFB878F98
3FE5C34FF8
7FC0000FF8
7FC0000FF8
3FC0000FF0
1FC0000FF0
FFE0001FF0
7FE0781FC0
3FF0FC3FC0
1FF8847FC0
1FFC7C7F80
0FFE38FE00
03E701FE00
0003873800
0001FC0000
0000780000
ENDCHAR
STARTCHAR 03A9
ENCODING 937
SWIDTH 1110 0
DWIDTH 37 0
BBX 37 34 1 1
BITMAP
0003800000
000FFE0000
001FFF8000
001FFFE000
003FFFF000
007FFFF800
007FFFFC00
00FF07FC00
00FE03FE00
00FE01FE00
01FC00FF00
03FC007F00
07FC003F80
3FFC003F80
7FF8001F80
7FFF83FF80
0FF8000F80
0FF8000F80
1FFB878F98
3FE5C34FF8
7FC0000FF8
7FC0000FF8
3FC0000FF0
1FC0000FF0
FFE0001FF0
7FE0781FC0
3FF0FC3FC0
1FF8847FC0
1FFC7C7F80
0FFE38FE00
03E701FE00
0003873800
0001FC0000
0000780000
ENDCHAR
STARTCHAR 03BC
ENCODING 956
SWIDTH 720 0
DWIDTH 24 0
BBX 25 32 0 -13
BITMAP
3C0F0000
7F1FC000
E338C000
C1B0E000
C1B06000
C1B06000
C1B06000
C1B06000
C1B06000
C1B06000
C1B06000
C1B06000
C1B06000
C1E07C00
C0E03F00
C0000300
C0000380
C0000180
C0060380
C11F8380
C1FFFF80
C1FFFF80
C1FFFF00
C1F9FF00
C1F0FC00
C3800000
E3800000
FF800000
FF800000
FF000000
7F000000
3C000000
ENDCHAR
STARTCHAR 03C0
ENCODING 960
SWIDTH 540 0
DWIDTH 18 0
BBX 19 25 0 -6
BITMAP
3FFF00
7FFFC0
E000C0
C00060
C00060
C00060
E00060
FC1860
FC1860
FC1860
7C1860
3C1860
0C1860
0C1860
0C1860
0C1860
0C1860
0C1860
0C1860
0E38E0
0FFFE0
0FFFE0
0FFFC0
07FFC0
03C700
ENDCHAR
STARTCHAR 2010
ENCODING 8208
SWIDTH 270 0
DWIDTH 9 0
BBX 10 13 0 2
BITMAP
1E00
7F80
6180
C0C0
C0C0
C0C0
40C0
E1C0
FFC0
FFC0
7F80
7F80
1E00
ENDCHAR
STARTCHAR 2013
ENCODING 8211
SWIDTH 420 0
DWIDTH 14 0
BBX 17 13 0 0
BITMAP
3FFC00
7FFE00
E00300
C00300
C00380
C00300
C00300
E00300
FFFF80
FFFF00
FFFF00
7FFE00
3FFC00
ENDCHAR
STARTCHAR 2014
ENCODING 8212
SWIDTH 630 0
DWIDTH 21 0
BBX 23 13 0 0
BITMAP
3FFFF0
7FFFF8
C0000C
C0000C
C0000E
C0000E
C0000E
C0000E
FFFFFE
FFFFFC
FFFFFC
7FFFF8
3FFFF0
ENDCHAR
STARTCHAR 2018
ENCODING 8216
SWIDTH 270 0
DWIDTH 9 0
BBX 10 18 0 8
BITMAP
1E00
7F80
6180
C0C0
C0C0
C0C0
C0C0
C0C0
C0C0
C0C0
C0C0
C0C0
E1C0
FFC0
FFC0
7F80
7F80
1E00
ENDCHAR
STARTCHAR 2019
ENCODING 8217
SWIDTH 270 0
DWIDTH 9 0
BBX 10 18 0 8
BITMAP
1E00
7F80
6180
C0C0
C0C0
C0C0
C0C0
C0C0
C0C0
C0C0
C0C0
C0C0
E1C0
FFC0
FFC0
7F80
7F80
1E00
ENDCHAR
STARTCHAR 201A
ENCODING 8218
SWIDTH 270 0
DWIDTH 9 0
BBX 10 18 0 -10
BITMAP
1E00
7F80
6180
C0C0
C0C0
C0C0
C0C0
C0C0
C0C0
C0C0
C0C0
C0C0
E1C0
FFC0
FFC0
7F80
7F80
1E00
ENDCHAR
STARTCHAR 201C
ENCODING 8220
SWIDTH 450 0
DWIDTH 15 0
BBX 17 18 0 8
BITMAP
1E3C00
7F7F00
63C300
C18180
C18180
C18180
C18180
C18180
C18180
C18180
C18180
C18180
E3C380
FFFF80
FFFF80
7FFF00
7F7F00
1E3C00
ENDCHAR
STARTCHAR 201D
ENCODING 8221
SWIDTH 450 0
DWIDTH 15 0
BBX 17 18 0 8
BITMAP
1E3C00
7F7F00
63C300
C18180
C18180
C18180
C18180
C18180
C18180
C18180
C18180
C18180
E3C380
FFFF80
FFFF80
7FFF00
7F7F00
1E3C00
ENDCHAR
STARTCHAR 201E
ENCODING 8222
SWIDTH 540 0
DWIDTH 18 0
BBX 19 18 0 -10
BITMAP
1E0F00
7FBFC0
61B0C0
C0E060
C0E060
C0E060
C0E060
C0E060
C0E060
C0E060
C0E060
C0E060
E1F0E0
FFFFE0
FFFFE0
7FBFC0
7FBFC0
1E0F00
ENDCHAR
STARTCHAR 2020
ENCODING 8224
SWIDTH 1170 0
DWIDTH 39 0
BBX 37 34 1 1
BITMAP
0003C00000
0007FE0000
000FFFC000
001FFFE000
003FFFF000
003FFFF800
007FFFFC00
007F87FE00
00FE03FE00
00FE01FF00
01FC00FF00
03FC007F80
07FC003F80
3FFC001F80
7FFC001F80
3FFF83EF80
0FF8040F80
07F8000F88
0FF3838F88
3FE5C74FF8
7FC0000FF8
7FC0000FF8
3FC0000FF0
0FE0000FF0
FFE0000FF0
7FE0381FE0
1FF07C3FC0
1FF8043FC0
1FFC7C7F80
0FFE38FE00
03F701FE00
0003873C00
0000FC0000
0000780000
ENDCHAR
STARTCHAR 2021
ENCODING 8225
SWIDTH 1110 0
DWIDTH 37 0
BBX 37 34 1 1
BITMAP
0003800000
000FFE0000
001FFF8000
001FFFE000
003FFFF000
007FFFF800
007FFFFC00
00FF07FC00
00FE03FE00
00FE01FE00
01FC00FF00
03FC007F00
07FC003F80
3FFC003F80
7FF8001F80
7FFF83FF80
0FF8000F80
0FF8000F80
1FFB878F98
3FE5C34FF8
7FC0000FF8
7FC0000FF8
3FC0000FF0
1FC0000FF0
FFE0001FF0
7FE0781FC0
3FF0FC3FC0
1FF8847FC0
1FFC7C7F80
0FFE38FE00
03E701FE00
0003873800
0001FC0000
0000780000
ENDCHAR
STARTCHAR 2022
ENCODING 8226
SWIDTH 390 0
DWIDTH 13 0
BBX 13 17 0 1
BITMAP
0F80
3FC0
70E0
E070
C030
C038
C018
C018
C038
C038
E078
F0F8
FFF0
FFF0
7FE0
3FC0
0F80
ENDCHAR
STARTCHAR 2026
ENCODING 8230
SWIDTH 750 0
DWIDTH 25 0
BBX 26 14 -1 -6
BITMAP
1E1E1E00
3F3F3F80
71F1F180
E0E0E0C0
C0C0C0C0
C0C0C0C0
C0C0C0C0
E0E0E0C0
F1E1E1C0
FFFFFFC0
FFFFFFC0
7FFFFF80
3F3F3F80
1E1E1E00
ENDCHAR
STARTCHAR 2030
ENCODING 8240
SWIDTH 840 0
DWIDTH 28 0
BBX 29 37 0 -9
BITMAP
0001E000
0003F000
0F071800
3FC61C00
70EE0C00
E07C0800
C03C1800
CE3C1C00
CE383C00
CF383800
CE303800
EE707800
F0F07000
FFE07000
FFE0E000
7FE0E000
3FC0F800
1FC1FC00
01C10E00
01827700
01847300
03847B80
030473C0
030471E0
06040070
060E0E30
060F8E38
0C0FCF18
0C1FCE10
0C1FCE30
0C1FE038
0E39F0F8
0FF8FFF0
0FF8FFF0
0FF07FE0
07F03FC0
03C00F80
ENDCHAR
STARTCHAR 2039
ENCODING 8249
SWIDTH 360 0
DWIDTH 12 0
BBX 12 19 0 -3
BITMAP
03C0
0FE0
1C60
3830
7030
6030
E070
C0F0
C0F0
E070
E030
F030
F830
7C70
7FF0
3FF0
1FF0
0FE0
03C0
ENDCHAR
STARTCHAR 203A
ENCODING 8250
SWIDTH 330 0
DWIDTH 11 0
BBX 12 19 0 -3
BITMAP
3C00
7F00
E380
C1C0
C0E0
C060
E070
F030
F030
E070
C070
C0F0
C1F0
E3E0
FFE0
FFC0
FF80
7F00
3C00
ENDCHAR
STARTCHAR 2044
ENCODING 8260
SWIDTH 480 0
DWIDTH 16 0
BBX 18 37 0 -9
BITMAP
001F00
003F80
0071C0
0060C0
0060C0
00C0C0
00C1C0
00C1C0
0181C0
018380
018380
030780
030700
070700
060F00
060E00
0E0E00
0C1E00
0C1C00
181C00
183C00
183800
303800
307000
707000
60F000
60E000
E0E000
C1E000
C1C000
C1C000
E3C000
FF8000
FF8000
FF0000
7F0000
3E0000
ENDCHAR
STARTCHAR 2122
ENCODING 8482
SWIDTH 660 0
DWIDTH 22 0
BBX 23 19 0 7
BITMAP
700000
F80000
FC3DE0
CC7FF8
CFE21C
C0C00C
C0800C
CF8C46
CF8C66
CF8C66
CF8C66
CF1C66
F03C66
FFFCEE
FFFFFE
7FFFFE
7FFFFE
1FEFFC
000738
ENDCHAR
STARTCHAR 2126
ENCODING 8486
SWIDTH 1110 0
DWIDTH 37 0
BBX 37 34 1 1
BITMAP
0003800000
000FFE0000
001FFF8000
001FFFE000
003FFFF000
007FFFF800
007FFFFC00
00FF07FC00
00FE03FE00
00FE01FE00
01FC00FF00
03FC007F00
07FC003F80
3FFC003F80
7FF8001F80
7FFF83FF80
0FF8000F80
0FF8000F80
1FFB878F98
3FE5C34FF8
7FC0000FF8
7FC0000FF8
3FC0000FF0
1FC0000FF0
FFE0001FF0
7FE0781FC0
3FF0FC3FC0
1FF8847FC0
1FFC7C7F80
0FFE38FE00
03E701FE00
0003873800
0001FC0000
0000780000
ENDCHAR
STARTCHAR 2202
ENCODING 8706
SWIDTH 1110 0
DWIDTH 37 0
BBX 37 34 1 1
BITMAP
0003800000
000FFE0000
001FFF8000
001FFFE000
003FFFF000
007FFFF800
007FFFFC00
00FF07FC00
00FE03FE00
00FE01FE00
01FC00FF00
03FC007F00
07FC003F80
3FFC003F80
7FF8001F80
7FFF83FF80
0FF8000F80
0FF8000F80
1FFB878F98
3FE5C34FF8
7FC0000FF8
7FC0000FF8
3FC0000FF0
1FC0000FF0
FFE0001FF0
7FE0781FC0
3FF0FC3FC0
1FF8847FC0
1FFC7C7F80
0FFE38FE00
03E701FE00
0003873800
0001FC0000
0000780000
ENDCHAR
STARTCHAR 2206
ENCODING 8710
SWIDTH 1110 0
DWIDTH 37 0
BBX 37 34 1 1
BITMAP
0003800000
000FFE0000
001FFF8000
001FFFE000
003FFFF000
007FFFF800
007FFFFC00
00FF07FC00
00FE03FE00
00FE01FE00
01FC00FF00
03FC007F00
07FC003F80
3FFC003F80
7FF8001F80
7FFF83FF80
0FF8000F80
0FF8000F80
1FFB878F98
3FE5C34FF8
7FC0000FF8
7FC0000FF8
3FC0000FF0
1FC0000FF0
FFE0001FF0
7FE0781FC0
3FF0FC3FC0
1FF8847FC0
1FFC7C7F80
0FFE38FE00
03E701FE00
0003873800
0001FC0000
0000780000
ENDCHAR
STARTCHAR 220F
ENCODING 8719
SWIDTH 540 0
DWIDTH 18 0
BBX 19 32 0 -6
BITMAP
3FFF00
7FFFC0
E000C0
C00060
C00060
C00060
E00060
FC1860
FC1860
FC1860
7C1860
3C1860
0C1860
0C1860
0C1860
0C1860
0C1860
0C1860
0C1860
0C1860
0C1860
0C1860
0C1860
0C1860
0C1860
0C1860
0E38E0
0FFFE0
0FFFE0
0FFFC0
07FFC0
03C700
ENDCHAR
STARTCHAR 2211
ENCODING 8721
SWIDTH 1110 0
DWIDTH 37 0
BBX 37 34 1 1
BITMAP
0003800000
000FFE0000
001FFF8000
001FFFE000
003FFFF000
007FFFF800
007FFFFC00
00FF07FC00
00FE03FE00
00FE01FE00
01FC00FF00
03FC007F00
07FC003F80
3FFC003F80
7FF8001F80
7FFF83FF80
0FF8000F80
0FF8000F80
1FFB878F98
3FE5C34FF8
7FC0000FF8
7FC0000FF8
3FC0000FF0
1FC0000FF0
FFE0001FF0
7FE0781FC0
3FF0FC3FC0
1FF8847FC0
1FFC7C7F80
0FFE38FE00
03E701FE00
0003873800
0001FC0000
0000780000
ENDCHAR
STARTCHAR 2219
ENCODING 8729
SWIDTH 240 0
DWIDTH 8 0
BBX 10 14 0 -6
BITMAP
1E00
7F00
6380
E1C0
C0C0
C0C0
C0C0
41C0
E1C0
FFC0
FFC0
7F80
7F80
1E00
ENDCHAR
STARTCHAR 221A
ENCODING 8730
SWIDTH 1110 0
DWIDTH 37 0
BBX 37 34 1 1
BITMAP
0003800000
000FFE0000
001FFF8000
001FFFE000
003FFFF000
007FFFF800
007FFFFC00
00FF07FC00
00FE03FE00
00FE01FE00
01FC00FF00
03FC007F00
07FC003F80
3FFC003F80
7FF8001F80
7FFF83FF80
0FF8000F80
0FF8000F80
1FFB878F98
3FE5C34FF8
7FC0000FF8
7FC0000FF8
3FC0000FF0
1FC0000FF0
FFE0001FF0
7FE0781FC0
3FF0FC3FC0
1FF8847FC0
1FFC7C7F80
0FFE38FE00
03E701FE00
0003873800
0001FC0000
0000780000
ENDCHAR
STARTCHAR 221E
ENCODING 8734
SWIDTH 930 0
DWIDTH 31 0
BBX 29 27 2 0
BITMAP
20004000
30006000
00000000
279B4EF0
2DB25998
2F365998
2C365998
27FE4EF8
20000000
E0000000
C06C0000
006C0000
006C0000
3C6DC1E0
7E6DE3F0
E36C7738
C36C3618
C36C3618
636E7718
7B67E3D8
3B63C1D8
00000000
00000000
02000588
B3B67E58
A2EB6FD8
A336DE38
ENDCHAR
STARTCHAR 222B
ENCODING 8747
SWIDTH 420 0
DWIDTH 14 0
BBX 22 39 -6 -13
BITMAP
0007F0
003FF8
00781C
00E00C
01C00C
01800C
03801C
0303FC
0307FC
0307FC
0307F8
0307F0
030600
030600
030600
030600
030600
030600
030600
030600
030600
030600
030600
030600
030600
030600
030600
3F0600
7E0600
E00E00
C00E00
C01E00
C03E00
E0FC00
FFFC00
FFF800
FFF000
7FE000
3F8000
ENDCHAR
STARTCHAR 2248
ENCODING 8776
SWIDTH 600 0
DWIDTH 20 0
BBX 21 42 0 -23
BITMAP
01F800
07FF00
1E0780
3801C0
7000E0
600060
E00030
C07830
C1FC30
C1FC18
C1FE18
C1FE18
C1DE18
C0FE18
E07E18
E00E18
F00618
F80618
FE0E18
7FFC18
3F0038
380038
300038
600078
E001F0
C07FF0
C1FFF0
C1FFE0
C1FFC0
C1FF80
C1FFE0
C0FFF0
C00030
E00038
E00018
F00038
FC0038
7FFFF8
3FFFF8
1FFFF0
0FFFF0
03FFC0
ENDCHAR
STARTCHAR 2260
ENCODING 8800
SWIDTH 1110 0
DWIDTH 37 0
BBX 37 34 1 1
BITMAP
0003800000
000FFE0000
001FFF8000
001FFFE000
003FFFF000
007FFFF800
007FFFFC00
00FF07FC00
00FE03FE00
00FE01FE00
01FC00FF00
03FC007F00
07FC003F80
3FFC003F80
7FF8001F80
7FFF83FF80
0FF8000F80
0FF8000F80
1FFB878F98
3FE5C34FF8
7FC0000FF8
7FC0000FF8
3FC0000FF0
1FC0000FF0
FFE0001FF0
7FE0781FC0
3FF0FC3FC0
1FF8847FC0
1FFC7C7F80
0FFE38FE00
03E701FE00
0003873800
0001FC0000
0000780000
ENDCHAR
STARTCHAR 2264
ENCODING 8804
SWIDTH 390 0
DWIDTH 13 0
BBX 14 25 0 -6
BITMAP
03C0
07E0
0E30
1C18
3818
6038
6078
6078
6038
7818
7C18
7E38
7FF8
7FF8
E018
C01C
C00C
C00C
C01C
E01C
FFFC
FFFC
FFF8
7FF8
3FF0
ENDCHAR
STARTCHAR 2265
ENCODING 8805
SWIDTH 390 0
DWIDTH 13 0
BBX 14 25 0 -6
BITMAP
1E00
3F00
7380
60C0
6060
6030
7030
7818
7038
6030
60F8
61F8
73F8
7FF8
E018
C01C
C00C
C00C
C01C
E01C
FFFC
FFFC
FFF8
7FF8
3FF0
ENDCHAR
STARTCHAR 22F2
ENCODING 8946
SWIDTH 600 0
DWIDTH 20 0
BBX 21 42 0 -23
BITMAP
01F800
07FF00
1E0780
3801C0
7000E0
600060
E00030
C07830
C1FC30
C1FC18
C1FE18
C1FE18
C1DE18
C0FE18
E07E18
E00E18
F00618
F80618
FE0E18
7FFC18
3F0038
380038
300038
600078
E001F0
C07FF0
C1FFF0
C1FFE0
C1FFC0
C1FF80
C1FFE0
C0FFF0
C00030
E00038
E00018
F00038
FC0038
7FFFF8
3FFFF8
1FFFF0
0FFFF0
03FFC0
ENDCHAR
STARTCHAR 25CA
ENCODING 9674
SWIDTH 1110 0
DWIDTH 37 0
BBX 37 34 1 1
BITMAP
0003800000
000FFE0000
001FFF8000
001FFFE000
003FFFF000
007FFFF800
007FFFFC00
00FF07FC00
00FE03FE00
00FE01FE00
01FC00FF00
03FC007F00
07FC003F80
3FFC003F80
7FF8001F80
7FFF83FF80
0FF8000F80
0FF8000F80
1FFB878F98
3FE5C34FF8
7FC0000FF8
7FC0000FF8
3FC0000FF0
1FC0000FF0
FFE0001FF0
7FE0781FC0
3FF0FC3FC0
1FF8847FC0
1FFC7C7F80
0FFE38FE00
03E701FE00
0003873800
0001FC0000
0000780000
ENDCHAR
STARTCHAR F001
ENCODING 61441
SWIDTH 780 0
DWIDTH 26 0
BBX 27 32 0 -6
BITMAP
03F00F00
0FFE3FC0
1E0F30C0
3803E060
7001E060
6001E060
E000E060
C0E0F0E0
C1F0FFE0
C1F07FE0
C1F0F9C0
C1F8F0C0
C1FFF0C0
C1FFF0C0
C000F0C0
C00070C0
C00070C0
C00070C0
C000F0C0
C1FFF0C0
C1FFF0C0
C1FFF0C0
C1FFF0C0
C1FFB0C0
C18030C0
C18030C0
E38039C0
FF803FC0
FF803FC0
FF003FC0
7F001F80
3E000F00
ENDCHAR
STARTCHAR F002
ENCODING 61442
SWIDTH 750 0
DWIDTH 25 0
BBX 26 32 0 -6
BITMAP
03F01F00
0FFE3F80
1E0F71C0
3803E0C0
7001E0C0
6001E0C0
E000E0C0
C0E0E0C0
C1F0E0C0
C1F060C0
C1F0E0C0
C1F8E0C0
C1FFE0C0
C1FFE0C0
C000E0C0
C00060C0
C00060C0
C00060C0
C000E0C0
C1FFE0C0
C1FFE0C0
C1FFE0C0
C1FFE0C0
C1FFE0C0
C18060C0
C18060C0
E38071C0
FF807FC0
FF807FC0
FF007FC0
7F003F80
3E001F00
ENDCHAR
ENDFONT
